<svg id="Layer_1" data-name="Layer 1" xmlns="http://www.w3.org/2000/svg" viewBox="0 0 128.08 155.68"><defs><style>.cls-1,.cls-13{fill:#f18732;}.cls-1,.cls-10,.cls-11,.cls-12,.cls-13,.cls-14,.cls-15,.cls-16,.cls-2,.cls-3,.cls-4,.cls-5,.cls-6,.cls-7,.cls-8{stroke:#1d1d1b;stroke-miterlimit:10;}.cls-1,.cls-2,.cls-3,.cls-4,.cls-5,.cls-6,.cls-7{stroke-width:0.93px;}.cls-2{fill:#f8f1a0;}.cls-15,.cls-3{fill:#b72424;}.cls-12,.cls-4{fill:#d5edf9;}.cls-10,.cls-5{fill:#1d1d1b;}.cls-6{fill:none;}.cls-7{fill:#f7d250;}.cls-8{fill:#c6c6c6;}.cls-9{fill:#b2b2b2;}.cls-10{stroke-width:1.14px;}.cls-11{fill:#fff;stroke-width:0.43px;}.cls-12{stroke-width:1.13px;}.cls-14{fill:#b6b7b6;}.cls-14,.cls-15,.cls-16{stroke-width:0.84px;}.cls-16{fill:#2e72b7;}</style></defs><path class="cls-1" d="M99,87.53a44.8,44.8,0,0,1,5,.56,37,37,0,0,1,6.65,1.63,29.52,29.52,0,0,1,9.61,5.65,29.09,29.09,0,0,1,6.13,7.82,41.44,41.44,0,0,1,3.4,9.86,5.45,5.45,0,0,1,.06,2.65,6.91,6.91,0,0,1-1.5,2.57,7.18,7.18,0,0,1,2.39-1.75,1.58,1.58,0,0,1,1.22-.13c.59.26.78,1,.9,1.52a5.57,5.57,0,0,1,.09,1.93,9.91,9.91,0,0,0,.53,3.61c.53,2.08,1.14,2.39,1.78,4.91a10.24,10.24,0,0,1,.3,1.83,5.29,5.29,0,0,1-.21,2.35,4,4,0,0,1-.94,1.39c-1,1-.81,1.39-2.66,4.34-2.32,3.69-2.46,2.91-4.07,5.69-.32.56-.76,1.38-1,1.3s-.27-1.41-.15-2.24a12.9,12.9,0,0,1,1.5-4c2.09-4.38,1.08-2.79,2.09-4.78a4.23,4.23,0,0,0,.77-2.57,4.9,4.9,0,0,0-.91-2c-.43-.6-.56-.55-1.1-1.25a5.34,5.34,0,0,1-1.06-1.87c-.27-1,.15-1.25-.1-2.34-.21-.93-.76-1.82-1-1.76s-.2.31-.33,1.28c-.18,1.3-.27,2-.35,2.71a21.65,21.65,0,0,1-.36,2.45,6.33,6.33,0,0,1-.68,1.85c-.54.9-1.18,1.11-2.35,1.89-1.69,1.11-1.35,1.33-4,3.34-1,.81-.92.63-2.16,1.58-2.27,1.72-3.11,2.62-3.32,2.46s1-2.27,1.32-2.73a22.71,22.71,0,0,1,3.08-3.94c2-2,2.77-2.08,3.45-3.59a12.18,12.18,0,0,0,.61-2.4,35.72,35.72,0,0,0,.23-3.68c0-.23,0-.72-.17-.81s-.5.47-1.21.69-1.08-.14-1.32.12,0,.58,0,1.13a2.81,2.81,0,0,1-.78,1.69,12.45,12.45,0,0,1-3,2.67c-1.35.87-2.31,1.37-3.88,2.22,0,0-1.16.62-3.68,2-3.79,2.09-4.38,2.65-9,5.23-1.61.91-2.43,1.37-3.33,1.8-1.09.54-1.89.87-3.33,1.65a12,12,0,0,0-2,1.22c-.67.56-.9.95-1.8,1.61s-1.25.71-1.52.7a1.78,1.78,0,0,1-1.23-.64,2.45,2.45,0,0,1-.15-2.09c1-3.88,0-3.59,1.6-8.33a47,47,0,0,1,2-5.07c1.6-3.42,2.43-5.18,4.3-6.8,1.08-.93,2.28-1.61,2.14-1.89s-1.6.16-2.09.3c-4.36,1.24-13.9,1.88-19.06-1.7-.58-.41-2.08-1.55-2.45-1.21-.22.19.06.78.37,1.67.12.35.38,1.46.91,3.67.6,2.51.25,2.39.86,5.18.28,1.24.68,2.77.92,3.67a23.54,23.54,0,0,1,.64,2.75,19.09,19.09,0,0,1,.14,2.93c0,2.44-.21,2.93-.52,3.28a1.63,1.63,0,0,1-1.16.61c-.62,0-1.07-.58-1.7-1.47-1.62-2.28-1.72-2.83-2.42-3.56a7,7,0,0,0-3-1.61c-5.42-2-7.7-11-8.52-10.64-.12,0-.07.22-.13,1.77a28.47,28.47,0,0,1-.27,3.27c-.17,1.08-.38,2.41-.79,2.45s-.86-1.33-1-1.91a12.06,12.06,0,0,1-.58-3.59c0-3.13.95-3.5.72-5.88-.14-1.33-.42-1.11-.82-3.17a12.79,12.79,0,0,1-.28-5.36,10.33,10.33,0,0,1,2.25-4.66c1-1.18,1.66-2,2.8-2.23s2.24.46,2.85-.15a2.67,2.67,0,0,0,.47-1.6,5.81,5.81,0,0,0,0-1.17,20.3,20.3,0,0,1,0-2.85c.12-2.13,1.75-4.55,3.65-6a6.13,6.13,0,0,1,3.15-1.66,11,11,0,0,1,5,1.16,5,5,0,0,0,1.1.39,7.33,7.33,0,0,0,2.84-.22,6.19,6.19,0,0,0,1.92-.46,4.35,4.35,0,0,0,1.4-1.37c.71-.93,1.63-1.37,3.47-2.25C90.52,87.06,97,87.42,99,87.53Z" transform="translate(-9.27 -9.21)"/><path class="cls-2" d="M119.51,98.49a3.42,3.42,0,0,0-2.43,3.38,2.82,2.82,0,0,0,.73,1.86,2.86,2.86,0,0,0,1.41.74c1.23.32,3.45.35,4.08-.71C124.21,102.2,121.73,98.16,119.51,98.49Z" transform="translate(-9.27 -9.21)"/><path class="cls-3" d="M121.23,86.27a7,7,0,0,0-3,3.29,11,11,0,0,0-1.8,6.43,10.13,10.13,0,0,0,1.11,3.72,14.48,14.48,0,0,0,6.93,7.35,9.19,9.19,0,0,0,5.83,1,8.56,8.56,0,0,0,5-3.21c1.92-2.62,1.57-5.6,1.33-7.57-.18-1.52-.88-7.39-5.7-10.15a13.24,13.24,0,0,0-7.32-1.4A5.87,5.87,0,0,0,121.23,86.27Z" transform="translate(-9.27 -9.21)"/><path class="cls-3" d="M86.53,78.15a9.14,9.14,0,0,0-2.22,2c-.31.38-1.27,1.63-2.15,5-.84,3.18-1.25,4.77-.46,5.75.19.24.81.9,4.08.88A25.76,25.76,0,0,0,95,89.92c3.5-1.35,5-2.6,5.73-3.87a4.15,4.15,0,0,0,.54-1.75,4.59,4.59,0,0,0-.76-2.76,8,8,0,0,0-3.68-2.89c-1.92-1-3.45-1.77-5.65-1.76A8.77,8.77,0,0,0,86.53,78.15Z" transform="translate(-9.27 -9.21)"/><path class="cls-4" d="M97.15,95.2a10.37,10.37,0,0,0-2.8,2.35,11.52,11.52,0,0,0-2.1,2.61,7.43,7.43,0,0,0,.81,8.67,8.7,8.7,0,0,0,5.55,3.42,8.57,8.57,0,0,0,5.88-1.37,10.45,10.45,0,0,0,4.45-9.74,7.77,7.77,0,0,0-1.32-3.31,8.56,8.56,0,0,0-6-3.21A7.65,7.65,0,0,0,97.15,95.2Z" transform="translate(-9.27 -9.21)"/><path class="cls-4" d="M68.48,92.21a6.5,6.5,0,0,0-2.78,2.3,11.41,11.41,0,0,0-2.49,4,9.6,9.6,0,0,0,.38,6.48,8.34,8.34,0,0,0,5.09,4.71,7.66,7.66,0,0,0,5-.35A9.45,9.45,0,0,0,78,105.31a9.81,9.81,0,0,0,1.43-3.18,8.22,8.22,0,0,0-.18-4.66,8.64,8.64,0,0,0-4.75-4.72,9.58,9.58,0,0,0-3.93-.83A5.62,5.62,0,0,0,68.48,92.21Z" transform="translate(-9.27 -9.21)"/><path class="cls-5" d="M81.9,112.48c-.57.19-1.05.65-1.86,2.48-1.07,2.42-1.61,3.63-1.07,4.51.32.52.86.69,1.93,1a9.1,9.1,0,0,0,3.9.26c1.71-.17,2.75-.27,3.1-1,.15-.3.18-.71-.56-2.28-1.13-2.4-2-4.35-4-4.94A2.37,2.37,0,0,0,81.9,112.48Z" transform="translate(-9.27 -9.21)"/><path class="cls-4" d="M89.18,119.31a2.37,2.37,0,0,0,.82-1.23c.53-2-1.54-5.18-3.86-5a3.6,3.6,0,0,0-2.76,2.12c.08.1.74-.56,1.21-.34.79.38-.36,2.68.72,4A3.08,3.08,0,0,0,89.18,119.31Z" transform="translate(-9.27 -9.21)"/><path class="cls-4" d="M77.19,119.29a2.54,2.54,0,0,1-.73-1.2c-.51-2,1.08-5.24,3-5.14a3.16,3.16,0,0,1,2.37,2c-.06.1-.64-.53-1-.3-.64.41.4,2.67-.44,4A2.25,2.25,0,0,1,77.19,119.29Z" transform="translate(-9.27 -9.21)"/><path class="cls-4" d="M88.61,117.58c.34-.21,1-.61,1-1.18,0-.8-1.23-1.49-2.25-1.6a2.31,2.31,0,0,0-2.21.79,1.86,1.86,0,0,0,.15,2.11C86.09,118.64,87.78,118.11,88.61,117.58Z" transform="translate(-9.27 -9.21)"/><path class="cls-4" d="M77.12,116.87a1.67,1.67,0,0,0,.71.88,2.13,2.13,0,0,0,2.59,0,1.9,1.9,0,0,0,.43-2.12,2,2,0,0,0-3.73,1.24Z" transform="translate(-9.27 -9.21)"/><path class="cls-1" d="M81.43,110.17a6.17,6.17,0,0,0-2.31.84,4.2,4.2,0,0,0-1.71,1.73,2.9,2.9,0,0,0-.27,2.38,3.15,3.15,0,0,0,2.14,1.44c.92.29,1.47.28,5.29,0,1.8-.11,2.72-.18,3.42-.81a2.88,2.88,0,0,0,.87-1.4,2.76,2.76,0,0,0-.08-1.63c-.68-2-3.45-2.56-4-2.67A7.73,7.73,0,0,0,81.43,110.17Z" transform="translate(-9.27 -9.21)"/><path class="cls-1" d="M60.37,104.94c-1.92.36-3.07,2.12-3.57,2.9-3.64,5.59.13,13.79,1.24,16.22a29.1,29.1,0,0,0,4.69,7.07c2.36,2.63,3.54,3.94,5.14,4.54A4.89,4.89,0,0,1,70,137c.49.56.43.81,1,2,.78,1.51,1.39,2.68,2.38,2.88a2.19,2.19,0,0,0,1.61-.44c1.42-1.09.85-4-.3-9.48-2-9.46-2.37-10.91-2.78-12.36-1.2-4.22-1.82-6.36-2.89-8.11C68.62,110.75,64.56,104.15,60.37,104.94Z" transform="translate(-9.27 -9.21)"/><path class="cls-6" d="M119.59,118a22.22,22.22,0,0,0,5.28-1.49c1.62-.68,2.67-1.36,3.06-1s-.51,1.73-1,4.41a15.46,15.46,0,0,0-.27,2.5" transform="translate(-9.27 -9.21)"/><path class="cls-6" d="M119.14,115.45a7.87,7.87,0,0,0,3.2-2.5,8.32,8.32,0,0,0,1.37-6.29" transform="translate(-9.27 -9.21)"/><path class="cls-6" d="M109,103.37a7.5,7.5,0,0,1,2.07,2.27,8.54,8.54,0,0,1,.7,1.53,10.32,10.32,0,0,1,.49,2" transform="translate(-9.27 -9.21)"/><path class="cls-6" d="M81.3,92.77a53.54,53.54,0,0,1,6.4.42,56.67,56.67,0,0,1,9.45,2" transform="translate(-9.27 -9.21)"/><path class="cls-6" d="M70,136.92a13.82,13.82,0,0,1,0-4.11c.22-1.59.54-1.89.69-2,.81-.61,2.43-.12,4.13,1.17" transform="translate(-9.27 -9.21)"/><path class="cls-7" d="M127.18,91.14c-2.14,1.19-1.73,4.12-1.71,4.26a3.58,3.58,0,0,0,1.6,2.66,3.64,3.64,0,0,0,3.32-.2,4.05,4.05,0,0,0,2-2.22,3.65,3.65,0,0,0-5.22-4.5Z" transform="translate(-9.27 -9.21)"/><path class="cls-7" d="M88.13,90.22c1.75,1.71,4.44.49,4.57.43a3.54,3.54,0,0,0,2.1-2.27,3.64,3.64,0,0,0-1.13-3.14A4,4,0,0,0,91,83.94a3.66,3.66,0,0,0-2.85,6.28Z" transform="translate(-9.27 -9.21)"/><path class="cls-7" d="M129.35,104.93a3.26,3.26,0,0,0-1.24-2.55,4,4,0,0,0-4.75-.34c-1,.7-1.74,2.09-1.33,3.15.23.6.88.93,2.19,1.57s2.18,1.08,2.92.91A3,3,0,0,0,129.35,104.93Z" transform="translate(-9.27 -9.21)"/><path class="cls-7" d="M118.92,89.56c-.51,0-.8.77-1.36,2.18s-.79,2-.49,2.38c.46.56,2,.39,2.79-.49a2.58,2.58,0,0,0,.5-2.06C120.21,90.63,119.55,89.51,118.92,89.56Z" transform="translate(-9.27 -9.21)"/><path class="cls-7" d="M95.31,78.14c1.16.47,3.61,1.45,3.92,2.87a1.35,1.35,0,0,1-.54,1.44,2.29,2.29,0,0,1-1.44.28c-1.18,0-3.57-.54-4.44-2.08-.68-1.18-.3-2.69.76-2.92A3.14,3.14,0,0,1,95.31,78.14Z" transform="translate(-9.27 -9.21)"/><path class="cls-7" d="M86,79c-.78,0-1.35.78-1.93,1.62-.39.55-1.11,1.59-.75,2.11s1.48.24,2.11.09c1-.22,1.92-.44,2.2-1.23A2.15,2.15,0,0,0,86,79Z" transform="translate(-9.27 -9.21)"/><path class="cls-1" d="M82.28,95.11a1,1,0,0,0-1,1,1,1,0,0,0,.89,1,1.1,1.1,0,0,0,.91-1.43A.93.93,0,0,0,82.28,95.11Z" transform="translate(-9.27 -9.21)"/><path class="cls-1" d="M86.37,95.2a1,1,0,0,0-.1,2,1.1,1.1,0,0,0,.91-1.43A.9.9,0,0,0,86.37,95.2Z" transform="translate(-9.27 -9.21)"/><path class="cls-1" d="M90.65,95.92a1,1,0,0,0-.1,1.94,1.09,1.09,0,0,0,.91-1.42A.9.9,0,0,0,90.65,95.92Z" transform="translate(-9.27 -9.21)"/><path class="cls-1" d="M84.37,98.38a1,1,0,0,0-.93,1.72,1.11,1.11,0,0,0,1.44-.9A.92.92,0,0,0,84.37,98.38Z" transform="translate(-9.27 -9.21)"/><path class="cls-1" d="M88.45,98.55a1,1,0,0,0-.93,1.72,1.11,1.11,0,0,0,1.44-.9A.92.92,0,0,0,88.45,98.55Z" transform="translate(-9.27 -9.21)"/><path class="cls-8" d="M98.2,159.76c-.43.27-.3.44-.73.78a2.82,2.82,0,0,1-1.79.56c-.66,0-.69-.25-1.17-.17A1.91,1.91,0,0,0,93.15,162c-.27.58,0,.86-.28,1.21s-.65.13-1.43.52-.72.66-1.11.64-.36-.31-.87-.5-.68,0-1.45-.1-.54-.24-.88-.24c-.83,0-1,.83-1.91.87-.26,0-.19-.07-.9-.17s-.88,0-1.2-.09-.45-.4-1.33-1.38c-.69-.77-.81-.75-1.05-1.18-.35-.64-.14-.79-.47-1.32A4.65,4.65,0,0,0,78.88,159c-.78-.56-1-.61-1.13-.95s.11-.58,0-1.12-.32-.61-.59-1.12c-.12-.22-.77-1.39-.37-2.12s1.41-.49,1.58-1.13c.11-.41-.25-.7,0-1.1s.57-.39.54-.54-.42-.08-.65-.36,0-.45-.18-.81-.57-.37-.76-.77.1-.6,0-.88c-.29-.55-1.8-.67-2.51,0-.3.29-.19.47-.59.9s-.93.48-1,.81c-.12.48.67.8.58,1.34a1.14,1.14,0,0,1-1.08.79c-.75,0-.88-.83-1.8-1-.71-.11-1,.34-1.46.09-.24-.12-.45-.46-.84-1.14s-.39-.79-.59-.93a1.39,1.39,0,0,0-1.63.18c-.46.48,0,1.06-.55,1.77-.06.07-.49.64-1,.58s-.51-.49-.77-.44-.18.64-.54.84-1-.48-1.73-.27c-.19.06-.16.11-.71.52a4.83,4.83,0,0,1-1.41.86c-.72.2-.84-.26-1.67-.14s-.87.59-1.81.74a1.67,1.67,0,0,1-1.32-.16c-.38-.3-.26-.7-.74-1.32-.22-.29-.28-.24-.66-.62-.54-.53-1.27-1.25-1.19-2,0-.26.11-.21.34-.92s.16-.76.26-1c.31-.72,1.34-.81,3.7-1.72a1.46,1.46,0,0,0,.82-.59c.25-.45,0-.74.19-1.2s.85-.45,1-.94-.22-.54-.13-1.06.39-.71.33-.77-.54.54-1.19.56a1.23,1.23,0,0,1-1.12-.6c-.21-.44.11-.83-.15-1.1s-.33,0-.66-.22-.29-.38-.74-.83-.5-.33-.7-.64a1.39,1.39,0,0,1-.22-.79c0-.44.27-.48.39-.94s-.2-.79-.1-1.53a1.8,1.8,0,0,1,.34-.92c.56-.68,1.59-.52,1.63-.85s-.4-.27-.53-.68a1.33,1.33,0,0,1,.22-1,2,2,0,0,1,1-1.05c.62-.22,1.07.18,1.35-.1s0-.47.18-.9a1.43,1.43,0,0,1,1.15-.77c.43,0,.49.23.93.2a2,2,0,0,0,1.08-.57c.57-.46.5-.63.86-.8a1.47,1.47,0,0,1,1.46.1c.36.3.22.66.6.9s.56,0,.91.15c.54.29.39,1.07.79,1.19s.49-.41,1.09-.52a1.63,1.63,0,0,1,1.54.57c.36.49.09.92.56,1.6.06.07.33.46.49.4s-.08-.65.12-1.33c.08-.25.16-.33,1.18-1.55a3.86,3.86,0,0,0,.77-1c.24-.64,0-.81.2-1.24.34-.63,1-.41,1.47-1.13a2.24,2.24,0,0,0,.29-1c0-.62-.19-.79,0-1.09.22-.45,1-.55,1.31-.6.59-.08.84.07,1.1-.15s.13-.45.35-.73c.38-.49,1-.07,1.85-.46s.52-.74,1.37-1.25c.33-.2,1-.59,1.43-.32s.41.92.34,1.28c-.14.71-1,.71-1,1.29,0,.23.11.45.38.89a2.44,2.44,0,0,0,1.1,1.16c.41.16.48,0,1,.13s.55.35.94.39.49-.2.89-.19a1.5,1.5,0,0,1,1.26.92c.23.61-.19,1.09,0,1.28s.61-.3,1.45-.28a10.48,10.48,0,0,0,1,.13c.39,0,.45-.07.81-.07a2.86,2.86,0,0,1,1.06.17,1.93,1.93,0,0,1,1.12.9c.24.57,0,1.09.12,1.17s.4-.34,1-.73a2.28,2.28,0,0,1,1.4-.56c1,.12,1.06,1.7,2,1.8.49.06.57-.33,1.31-.29a3,3,0,0,1,1.25.35c.37.22.52.44.72.38s.17-.33.39-.64a1.4,1.4,0,0,1,1.3-.59c.46.1.34.51,1.21,1.27a1.69,1.69,0,0,1,.55.62,1.87,1.87,0,0,1,.1.82c0,.75-.07.7,0,1a5.71,5.71,0,0,0,.55,1.33,4,4,0,0,0,.29.63c.31.48.57.49.77.92s0,.4.19.71c.25.49.64.45.78.81a1.17,1.17,0,0,1-.44,1.18,2.61,2.61,0,0,1-1.53.29c-.41,0-.56,0-.63.07s.27.48.76,1.37c.3.53.27.63.48.81.37.31.68.22.93.53a1.19,1.19,0,0,1,.18.82c-.07.85-.79,1.07-.69,1.53s.88.68,1.34.73.67-.16,1.19-.08,1.16.37,1.25.84-.29.57-.43,1.45a.65.65,0,0,0,.07.51c.13.17.34.14.53.2.43.14.62.7.76,1.14.2.62.51,1.55,0,2.13a1.64,1.64,0,0,1-1.43.44c-.76-.11-1-.68-1.41-.53a.92.92,0,0,0-.4,1c.09.53.61.54.7,1s-.21.74-.77,1.47-.72.73-.83,1.11c-.14.53.12.77,0,1.22a1.62,1.62,0,0,1-.87.83c-.56.27-.75.05-1.32.33a7.46,7.46,0,0,0-.84.66c-.79.65-.83.71-1,.72-.6,0-.94-.87-1.29-.75s-.09.54-.46.91S98.74,159.42,98.2,159.76Z" transform="translate(-9.27 -9.21)"/><path class="cls-9" d="M78.39,146.49s.18,0,.19,0-.2-.1,0,0a3.3,3.3,0,0,1,.32.18,2,2,0,0,0,1,.32,1.69,1.69,0,0,0,1.06-.33l.28-.22c.14-.11,0,0,0,0l.17-.11,0,0c.13-.07.1.08-.06,0h.15a.71.71,0,0,0,.15,0c-.15,0-.19,0-.11,0h.09l.65.17a2.26,2.26,0,0,0,1.8-.21,1,1,0,0,0,.36-1.37,1,1,0,0,0-1.37-.35s-.18.08,0,0,0,0,0,0,.17,0,.07,0h-.14c-.18,0,.18.05.06,0l-.15,0-.31-.07a3.18,3.18,0,0,0-1.59-.12,2,2,0,0,0-.73.34l-.28.23c-.09.07.17-.1,0,0s-.2.11-.06.05-.23,0,.14,0c-.18,0,.16,0,0,0s.22.12,0,0l-.29-.17a2.27,2.27,0,0,0-.79-.32,1.09,1.09,0,0,0-.77.1,1.07,1.07,0,0,0-.46.6,1,1,0,0,0,.7,1.23Z" transform="translate(-9.27 -9.21)"/><path class="cls-9" d="M69.33,134.14,69,134,69,133.9l.11.08-.14-.12a.94.94,0,0,0-.1-.1c-.11-.12.15.23,0,0s0-.16,0,.08c0-.06,0-.11,0-.17l0,.26v-.18l0,.26a1.69,1.69,0,0,0-.11-1.17,1.39,1.39,0,0,0-1-.67,1.36,1.36,0,0,0-1.44,1.71l1.83-.77-.31-.4a1,1,0,0,0-.86-.5,1,1,0,0,0-.86.5,2.52,2.52,0,0,0-.27,1.84,2.09,2.09,0,0,0,.34.76,2.31,2.31,0,0,0,.31.39l-.06-.08,0,0c.06.09,0,.06,0-.11,0,0,0,.05,0,.08l0-.26a.11.11,0,0,1,0,.08l0-.27a.78.78,0,0,1,.33-.43q.27-.09.12-.06l.27,0H67l.26,0a2.8,2.8,0,0,0-1,0,1.8,1.8,0,0,0-.84.44,1.84,1.84,0,0,0-.53,1.79,1,1,0,1,0,1.93-.53.29.29,0,0,1,0-.09l0,.26a1,1,0,0,1,0-.17l0,.26a.43.43,0,0,1,0-.11c0-.19,0,.11,0,.09s0-.08.06-.09-.17.17-.06.07,0,0,.06-.06c-.11.16-.17.11-.07.06s-.1,0-.1,0,.13,0,.13,0l-.26,0a.54.54,0,0,1,.18,0l-.27,0a1.93,1.93,0,0,0,1.28-.06,1.25,1.25,0,0,0,.62-1.42,2,2,0,0,0-.55-.91c.19.18.09.13,0,0s-.11-.28,0,0a2.14,2.14,0,0,1-.09-.34l0,.27a1.78,1.78,0,0,1,0-.4l0,.27a1.31,1.31,0,0,1,.06-.27c0-.1.08-.08,0,.08a.83.83,0,0,0,.07-.13H66.05l.3.4a1,1,0,0,0,1.25.41,1,1,0,0,0,.58-1.18v0l0,.26a.27.27,0,0,1,0-.09l0,.27a.29.29,0,0,1,0-.09.49.49,0,0,1-.11.23.58.58,0,0,1-.18.17c-.18.06-.21.08-.11.06l-.27,0h0l-.26,0,.09,0a.45.45,0,0,1-.23-.11.58.58,0,0,1-.17-.18c-.06-.18-.08-.21-.06-.12l0-.26a.41.41,0,0,1,0,.11l0-.27a2.16,2.16,0,0,0,0,1,1.87,1.87,0,0,0,.36.7,3.54,3.54,0,0,0,1,.87,1,1,0,0,0,1.37-.36,1,1,0,0,0-.36-1.37Z" transform="translate(-9.27 -9.21)"/><path class="cls-9" d="M72.91,145.06a4.38,4.38,0,0,1-.42-.28l.2.15a1.7,1.7,0,0,1-.3-.3l.15.21a1.88,1.88,0,0,1-.14-.24l.11.24a.6.6,0,0,1-.06-.19l0,.26a.81.81,0,0,1,0-.22l0,.27a.83.83,0,0,1,.06-.21l-.1.24a.71.71,0,0,1,.08-.15l-.16.2a.63.63,0,0,1,.12-.11l-.21.16a.53.53,0,0,1,.1-.06l-.24.1a.31.31,0,0,1,.13,0l-.26,0h0l-1-.74a3.76,3.76,0,0,1,.17.66l0-.27c0,.07,0,.13,0,.19l1.5-.86a.76.76,0,0,1-.19-.12l.2.16-.18-.18.16.21a.89.89,0,0,1-.14-.25l.1.24a1.38,1.38,0,0,1-.08-.27l0,.27a.89.89,0,0,1,0-.23l0,.27v0l-1.67.44.51.51,1.21-1.57h0l.2.15-.06,0,.15.2a.31.31,0,0,1,0-.1l.1.24a.24.24,0,0,1,0-.08l0,.27v-.09l0,.27v0a.78.78,0,0,0,0-.4.81.81,0,0,0-.12-.37,1,1,0,0,0-1.83.24,1.58,1.58,0,0,0,0,.38,1.48,1.48,0,0,0,.16.58,1.41,1.41,0,0,0,.5.53,1,1,0,0,0,.77.1,1,1,0,0,0,.52-.36,1,1,0,0,0-.08-1.31l-.51-.51a1,1,0,0,0-1-.26,1,1,0,0,0-.7.7,3,3,0,0,0,0,.42c0,.14,0,.28,0,.42a2.09,2.09,0,0,0,.21.54,2,2,0,0,0,.35.46,1.75,1.75,0,0,0,.48.34,1,1,0,0,0,.51.14,1,1,0,0,0,1-1,4.2,4.2,0,0,0-.22-1.11l-.1-.24a.87.87,0,0,0-.26-.28,1,1,0,0,0-.61-.21,1.49,1.49,0,0,0-.74.22,1.58,1.58,0,0,0-.51.52,1.75,1.75,0,0,0-.24,1.18,2,2,0,0,0,.58,1.12,4.11,4.11,0,0,0,.82.62,1.07,1.07,0,0,0,.77.1,1,1,0,0,0,.59-.46,1,1,0,0,0-.35-1.37Z" transform="translate(-9.27 -9.21)"/><path class="cls-9" d="M100.63,138.3c-.29-.29-.6-.57-.89-.87s.08.15,0,0a.41.41,0,0,1,0-.09c0-.1,0-.06,0,.1l0-.1a.59.59,0,0,1,0,.37.74.74,0,0,1-1.08.42c-.12-.11-.15-.13-.07,0a.47.47,0,0,1-.15-.25c0-.17,0-.2,0-.08s0,.09,0-.06c0,.07,0,.21-.05.28a3,3,0,0,0,0,.43,1.56,1.56,0,0,0,.76,1.37,1,1,0,0,0,1.11-.08,1,1,0,0,0,.36-1,1.51,1.51,0,0,0-2-.94,2.39,2.39,0,0,0-.37.15c-.19.09.18-.05,0,0l-.13,0h.12s-.16,0-.22,0c-.22,0,.18,0,0,0l-.22,0a4.58,4.58,0,0,0-.63-.1,1.76,1.76,0,0,0-1.87,1.1,1.47,1.47,0,0,0,.92,1.88,1,1,0,0,0,1-.26c.16-.14-.18.1,0,0s.2-.1,0,0,0,0,.05,0,.27,0,0,0l-.71-1.71c-.14.12.11-.07,0,0l-.11.09-.3.2c-.2.12-.4.24-.6.34a1,1,0,0,0-.36,1.37,1,1,0,0,0,1.37.36,9,9,0,0,0,1.42-.94A1,1,0,0,0,98,139a1,1,0,0,0-.91-.62,2.49,2.49,0,0,0-1.49.64l1-.26a.71.71,0,0,1,.3.18s.14.22.09.11.08.25.06.12,0,.28,0,.14,0,.14,0,.14l0-.08s-.11.24,0,.12c-.05.08-.13.2-.22.23l.1-.06-.07,0h.05l-.14,0s.08,0,.12,0H97c.14,0,0,0-.08,0s.22,0,.32.06a2.63,2.63,0,0,0,1.52-.05l.3-.12s.17-.08,0,0,0,0,0,0,.2,0,0,0a.41.41,0,0,1-.22,0c-.2-.1.09.08-.09-.06a.32.32,0,0,1-.16-.21c-.08-.18-.11-.22-.08-.11l1.47-1.13c-.07,0-.06,0,0,0a.44.44,0,0,1,.16.17c0,.05.07.24,0,.08s0,.25,0,.08a.17.17,0,0,1,0-.07c0-.07,0,0,0,.1a1.22,1.22,0,0,1,0-.17l.06-.37a1.81,1.81,0,0,0,0-.57,1.37,1.37,0,0,0-2-.88,1.43,1.43,0,0,0-.3,2,8.48,8.48,0,0,0,1.21,1.26,1,1,0,0,0,1.41-1.41Z" transform="translate(-9.27 -9.21)"/><path class="cls-9" d="M96.93,156.16a1.9,1.9,0,0,0-.34-1.19,4.6,4.6,0,0,0-.39-.51l-.13-.14-.08-.09c-.11-.12,0,.05,0,.05a.76.76,0,0,1-.12-.2s0-.07-.05-.08.07.22,0,.06,0-.06,0-.09,0,.12,0,.12c0-.16,0,.07,0,.09,0-.15,0,.07,0,.07a1.57,1.57,0,0,0,.12-.19,1.84,1.84,0,0,0,.17-.38,1.23,1.23,0,0,0-.14-1,2.22,2.22,0,0,0-1.22-.78,1.61,1.61,0,0,0-1.51.39,2,2,0,0,0-.14,2.33,4.94,4.94,0,0,0,.55,1c.06.08.11.16.17.23l.18.23s.12.14,0,0,0,0,0,0,0,0,0,0a.2.2,0,0,1,0-.15.7.7,0,0,1,.51-.72l.77.1q-.14-.08.09.09s0,0,0,0,.07.09,0,0c.06.18.08.22,0,.12l0-.13c.07.26,0,.18,0,.07a8.5,8.5,0,0,0-.07-.87,2.83,2.83,0,0,0-.85-1.4L94.3,153c-.06-.08-.08-.19,0,0l-.08-.12c-.1-.18,0,.06,0,.07s0-.12,0-.15,0,0,0,.15a.2.2,0,0,1,0-.11l0,.15,0-.1c-.06.14-.08.18,0,.11l0-.07c-.1.13-.11.15,0,.08l0,0c-.13.1-.15.12-.07.06-.14.06-.18.07-.11.05.24-.05-.22,0,0,0s-.23-.07,0,0-.21-.12-.05,0-.14-.16,0,0-.12-.22,0,0l1.12-1.47-.19,0c-.2-.05.18.11,0,0l-.17-.1c-.17-.1.15.13,0,0a1,1,0,0,0-1.42,0,1,1,0,0,0,0,1.42,2.75,2.75,0,0,0,1.25.66,1,1,0,0,0,1-.36,1,1,0,0,0,.08-1.11,1.81,1.81,0,0,0-3.4.95,2.55,2.55,0,0,0,.83,1.61l.22.24s.14.17,0,0,0,0,0,.06a.47.47,0,0,1,.07.12s-.07-.24-.06-.13,0,.05,0,.07,0,.09,0,.09,0-.24,0-.14,0,.12,0,.17a2,2,0,0,0,.63,1.74,1.14,1.14,0,0,0,1.71-.35,1.42,1.42,0,0,0,0-1.45c0-.08-.11-.15-.16-.22l-.12-.15h0l-.07-.1a1.88,1.88,0,0,1-.16-.23A2.71,2.71,0,0,1,95,154c-.08-.12-.12-.29-.21-.41s.07.2,0,.11l0-.08a1.21,1.21,0,0,1,0-.18v-.08s0,.23,0,.14a.19.19,0,0,0,0-.08c0-.16,0,.12,0,.11l0-.07-.06.13s.07-.1,0,0a.56.56,0,0,1-.18.16s.1,0,0,0-.29.05-.17.05-.11,0-.11,0l.12,0s-.18-.09-.09,0l.12.06.09.05,0,0-.33-.84s.1-.17,0-.1a.67.67,0,0,1-.07.11,1.59,1.59,0,0,0-.18.4,1.9,1.9,0,0,0,.16,1.42,4,4,0,0,0,.68.9l.08.1c-.09-.11,0,0,0,0a1,1,0,0,0,.08.14c.06.07,0-.09,0-.1l0,.11s0,.14,0,0,0,0,0,0a1,1,0,0,0,1,1,1,1,0,0,0,1-1Z" transform="translate(-9.27 -9.21)"/><path class="cls-9" d="M82.93,146c.86.13,2,.56,2.86.08a1.59,1.59,0,0,0,.4-2.25,2.91,2.91,0,0,0-2.44-.91l-.62,0c-.07,0-.5-.09-.24,0s.07.12.11-.06a2.51,2.51,0,0,0,0-.67,3.26,3.26,0,0,0-1.11-2.29,2.63,2.63,0,0,0-.41-.35c-.16-.05,0,.46-.22.35.06,0,.45-.33.44-.31a1.33,1.33,0,0,0,.35-.53c.66-1.84-2.79-3.56-3.69-1.75a3.11,3.11,0,0,0,.46,2.6c.26.51.77,1.22.67,1.73l1.23-.7c-.91-.19-2-.64-2.89-.05a1.38,1.38,0,0,0,.07,2.3l.51-1.86c-1-.11-2.15.42-2.09,1.6a1.88,1.88,0,0,0,.9,1.42,4,4,0,0,1,.61.35,2.1,2.1,0,0,1,.24.41,1.56,1.56,0,0,0,2.71.12c.56-1-.06-2.24-.7-3l-1.21,1.57.93.64c.15.11.3.22.46.32l.15.11q.14.1,0-.06v-.53l0,.11,1.23-.69c-.36-.12-.62-.55-.91-.78a2.56,2.56,0,0,0-1.59-.67,1.92,1.92,0,0,0-.85.22c-.07,0-.15.11-.21.13.11,0,.06,0-.06,0a1.85,1.85,0,0,1-.9-.63,1,1,0,0,0-1.57-.2.59.59,0,0,1,.85.09L76,143.15c-.22.1.09,0,.17,0l.38-.07a5.2,5.2,0,0,0,.78-.29c.31-.12.75-.37,1.07-.18.58.36,1.6-.09,1.5-.86A1.29,1.29,0,0,1,80,141a1,1,0,0,0-.36-1.36,1,1,0,0,0-1.37.35,3.08,3.08,0,0,0-.34,1.76l1.51-.87a2.65,2.65,0,0,0-2.3-.14c-.34.12-.66.29-1,.39a7.29,7.29,0,0,0-1.11.3,1,1,0,0,0-.36,1.37,1.42,1.42,0,0,0,2.28.31l-1.57-.2c.69,1,2,1.92,3.22,1.58a2.08,2.08,0,0,0,.43-.19l.19-.11-.09,0a1.25,1.25,0,0,1,.46.34,3.92,3.92,0,0,0,1.51,1,1,1,0,0,0,1.23-.69c.29-.73-.24-1.34-.79-1.73s-1.08-.75-1.62-1.13a1,1,0,0,0-1.29.26,1,1,0,0,0,.08,1.32,2,2,0,0,1,.29.58c0,.06,0,.13,0,.13s0,0,0,0l.23-.25h.53c-.29,0,0,.05,0,0s-.15-.27-.24-.4a2.57,2.57,0,0,0-.74-.69l-.3-.17-.19-.11c-.08,0-.08,0,0,0s-.22.67-.26.63a2.3,2.3,0,0,0,.38,0c1,.11,1.29-1.39.5-1.87l-.08,0,.36.35,0,.41c-.38.24-.48.37-.29.42a1.36,1.36,0,0,0,.38.08l.88.19a1,1,0,0,0,1.23-.7,3.75,3.75,0,0,0-.46-2.49,4.15,4.15,0,0,1-.74-1.86l-.13.5h0l-.44.26c-.06,0-.14-.1.1,0a.66.66,0,0,1,.15,0c.16.06.24.28.25.07l.14-.5s.15-.07,0,0a.81.81,0,0,0-.24.17,1.4,1.4,0,0,0-.52.7,1.8,1.8,0,0,0,.18,1.53c.27.44.73.64,1,1a1.6,1.6,0,0,1,.26,1,2.93,2.93,0,0,0,.22,1.38,1.75,1.75,0,0,0,1.32.86c.52.08,1,.09,1.56.13a3.67,3.67,0,0,0,.52.08c-.12,0-.12-.45,0-.52l.44-.25a1.26,1.26,0,0,1-.63-.05l-.93-.14a1,1,0,0,0-1.23.7,1,1,0,0,0,.7,1.23Z" transform="translate(-9.27 -9.21)"/><path class="cls-9" d="M57.5,150.16a1.78,1.78,0,0,0,1.69.46,1.75,1.75,0,0,0,.78-.42,1.6,1.6,0,0,0,.28-.35c.06-.08.08-.17.14-.25l-.16.2.05-.05-.21.16.06,0-.24.1.07,0-.27,0h.1l-.27,0a2.78,2.78,0,0,1,.38.12,2,2,0,0,0,.42.06A1.46,1.46,0,0,0,61,150a1,1,0,0,0,.46-.6,1.09,1.09,0,0,0-.1-.77,1.06,1.06,0,0,0-.6-.46l-.27,0a1,1,0,0,0-.5.13h0l.23-.1-.07,0,.27,0h-.1l.27,0a2.8,2.8,0,0,1-.31-.09,1.58,1.58,0,0,0-.52-.09,1.23,1.23,0,0,0-.89.4,1.29,1.29,0,0,0-.24.35.71.71,0,0,1-.08.15l.15-.21a.8.8,0,0,1-.13.13l.21-.16a.51.51,0,0,1-.16.09l.24-.1-.23.07.27,0a.74.74,0,0,1-.21,0l.26,0a.76.76,0,0,1-.2-.06l.24.1a.51.51,0,0,1-.16-.09l.21.16-.08-.07a1,1,0,1,0-1.41,1.41Z" transform="translate(-9.27 -9.21)"/><path class="cls-9" d="M80.5,130.87a1.6,1.6,0,0,0-1.58,1.2,2.24,2.24,0,0,0-.07.89c0,.14,0,.28.05.41v.21c0,.12.06-.19,0,0,0-.07.07-.14,0,0a2.12,2.12,0,0,0-.11.21,2.94,2.94,0,0,0-.23.51,3.22,3.22,0,0,0-.19.87,3.33,3.33,0,0,0,.4,1.83,1,1,0,0,0,1.37.36A1,1,0,0,0,80.5,136s0-.08-.07-.13c0,.13.06.14,0,0s0-.19-.08-.28,0-.1,0,0c0-.05,0-.09,0-.14s0-.26,0-.3c0,.14,0,.16,0,0l0-.14c0-.05.1-.38,0-.11a4.58,4.58,0,0,1,.28-.54,2.2,2.2,0,0,0,.21-1c0-.23-.05-.44-.06-.66a1,1,0,0,1,0-.17c0-.11,0-.08,0,.09l0-.11,0,.07c.06-.09,0-.07,0,.06.07-.07,0-.05-.08,0s-.19.07-.09,0c-.18,0-.21,0-.1,0a1,1,0,0,0,1-1,1,1,0,0,0-1-1Z" transform="translate(-9.27 -9.21)"/><path class="cls-9" d="M84.42,145.12c-.16.13.14-.09,0,0l-.14.09-.28.18a7.76,7.76,0,0,0-.68.49,2,2,0,0,0-.76,1.57,3,3,0,0,0,1,1.83l.14.15c-.14-.16,0,0,0,0a.21.21,0,0,1,.06.1l0-.1c.06.05,0,.23,0,.09s.06-.27,0-.12l.05-.11c-.05.07-.05.07,0,0s0-.07,0,0l.1-.08a.53.53,0,0,1,.41-.06,1,1,0,0,0-1.23.7,2.06,2.06,0,0,0,.22,1.55,1,1,0,0,0,1.13.46,1.05,1.05,0,0,0,.73-1,4,4,0,0,0-1-2.61,8.69,8.69,0,0,1-.66-1s-.09-.19,0,0,0,0,0,0a2.68,2.68,0,0,1-.07-.27c0-.18,0,.25,0,.06v-.14c0-.12.06-.09,0,.08a1,1,0,0,0,0-.17,1,1,0,0,0-.7-1.23,1,1,0,0,0-1.23.7,3.4,3.4,0,0,0,.75,2.84,10.93,10.93,0,0,1,.7,1.07.83.83,0,0,1,.07.13c0,.1,0,.19,0,0a1.14,1.14,0,0,0,.09.26l0,.14c0,.18,0,0,0-.07s0,.25,0,.34l1.86-.5c-.05-.1-.05-.1,0,0,0-.1,0-.11,0,0s0,.07,0,0c0,.13,0,.14,0,0l-1.23.7a1.6,1.6,0,0,0,1.93-1.29,2.6,2.6,0,0,0-.92-2.18l-.08-.09-.06-.09c0-.09-.11-.21,0,0,0-.1,0-.1,0,0s0,.07,0,0c0,.09-.06.2,0,.06s-.12.2,0,.06,0,0,0,0,.11-.11.13-.13.17-.13,0,0,0,0,.06,0l.3-.2a8.29,8.29,0,0,0,.77-.55,1,1,0,0,0,0-1.41,1,1,0,0,0-1.42,0Z" transform="translate(-9.27 -9.21)"/><path class="cls-9" d="M59.92,139.22a1,1,0,0,0,.34.05,1.16,1.16,0,0,0,.9-.35,1.27,1.27,0,0,0,.27-.34,1.61,1.61,0,0,0,.17-.43,1.5,1.5,0,0,0,0-.47,1.81,1.81,0,0,0-.18-.68c-.08-.19-.2-.36-.28-.55l.1.24a1.09,1.09,0,0,1-.07-.24l0,.26a.43.43,0,0,1,0-.16l0,.26c0-.15.06-.3.08-.45a1.38,1.38,0,0,0,0-.45,1.18,1.18,0,0,0-.82-.8,1.13,1.13,0,0,0-1.12.27,1.21,1.21,0,0,0-.28.49.94.94,0,0,0,0,.66,1.63,1.63,0,0,0,.09.19l-.11-.24a.16.16,0,0,1,0,.09l0-.27v.12l0-.27a.24.24,0,0,1,0,.12l.1-.24a.6.6,0,0,1-.06.11l.16-.2-.09.08.2-.16-.08,0,.24-.1-.07,0,.27,0h0a.85.85,0,0,0-.38.09.69.69,0,0,0-.32.21,1,1,0,0,0,0,1.41.91.91,0,0,0,.7.29,1.46,1.46,0,0,0,.48-.1,1.41,1.41,0,0,0,.41-.26,1.1,1.1,0,0,0,.29-.38,1.43,1.43,0,0,0,.18-.7,1.46,1.46,0,0,0-.2-.71l.1.77a0,0,0,0,1,0,0l-.11.24v0l-.15.2h0l-.2.16,0,0-.24.1h0l-.26,0h0l-.27,0h.06l-.24-.1,0,0-.2-.15,0,0-.16-.21s0,0,0,0l-.1-.24a.64.64,0,0,0,0,.07l0-.26v.11l0-.27a4,4,0,0,0-.08.59,1.68,1.68,0,0,0,.11.54,4.37,4.37,0,0,0,.23.49c.06.1.11.21.16.31l-.1-.23a.57.57,0,0,1,0,.14l0-.26a.49.49,0,0,1,0,.17l0-.26a1,1,0,0,1,0,.16l.1-.23a.5.5,0,0,1-.08.14l.16-.21-.06.07.2-.16-.07,0,.24-.1,0,0,.26,0h-.08l.27,0-.07,0a1,1,0,0,0-.77.1,1,1,0,0,0-.36,1.37,1.15,1.15,0,0,0,.6.46Z" transform="translate(-9.27 -9.21)"/><path class="cls-1" d="M113.45,109.09a9.52,9.52,0,0,0-5.41,2c-5.5,3.57-8.24,5.36-8.57,5.63a40.06,40.06,0,0,0-9.07,10,41.19,41.19,0,0,0-3.87,8.36,21.82,21.82,0,0,0-1.22,9.11c0,.36.15,1.06.63,1.3.78.39,2-.74,3.49-1.79s1.56-.79,4.8-2.42c5.66-2.85,7-4.27,13.76-7.86a47.58,47.58,0,0,0,7.38-4.49c2.33-1.75,3.22-2.8,3.75-4.11.36-.89.47-1.69.08-5.86-.67-7.25-1.31-8.22-2.1-8.84A5.79,5.79,0,0,0,113.45,109.09Z" transform="translate(-9.27 -9.21)"/><path class="cls-6" d="M86.53,135.08A4.88,4.88,0,0,1,90.18,134a3.41,3.41,0,0,1,2.15,1.06,4,4,0,0,1,.65,3.13,8.37,8.37,0,0,1-2,4.61" transform="translate(-9.27 -9.21)"/><ellipse class="cls-10" cx="61.42" cy="94.38" rx="5.1" ry="4.57"/><ellipse class="cls-10" cx="89.81" cy="96.63" rx="5.1" ry="4.57"/><ellipse class="cls-11" cx="72.59" cy="100.73" rx="1.91" ry="1.71" transform="translate(-60.08 77.76) rotate(-47.86)"/><ellipse class="cls-11" cx="100.88" cy="102.56" rx="1.91" ry="1.71" transform="translate(-52.12 99.34) rotate(-47.86)"/><ellipse class="cls-4" cx="61.41" cy="74.59" rx="3.39" ry="2.35"/><ellipse class="cls-4" cx="52.82" cy="65.75" rx="5.21" ry="3.61"/><path class="cls-12" d="M14.89,46.43a12.28,12.28,0,0,0-1.11,9.34,7.24,7.24,0,0,0,4.68,4.67c3.44,1.43,8,.34,9.36-3.11.43-1.07.64-2.55,1-2.51s.44,1.37.87,2.81a11.22,11.22,0,0,0,2.49,4.22c3.7,4.45,10.33,3.32,11.18,3.16,2.27-.42,5.69-1.06,6.71-4.22.59-1.82.28-4.16.62-4.21s.42,1.37,1.12,2.81a7.24,7.24,0,0,0,2.73,3c3.67,2.55,9.33,1.88,11.56,1.59a13.7,13.7,0,0,0,7.29-2.91,5.31,5.31,0,0,0,2.27-3.54c.16-1.51-.55-2.67-.25-3s1.32,1,3,1.93a6.72,6.72,0,0,0,4.22.7c1-.19,2.25-.75,4.35-3,2.31-2.46,6.85-7.29,6.09-10.9-.67-3.17-5.13-3.84-5-4.74.09-.53,1.55.07,3.35-.88a7.2,7.2,0,0,0,3.6-5.09c.22-1.95-.59-3.48-2.11-6.33-1.27-2.39-2.39-4.48-4.47-6.15a9.35,9.35,0,0,0-7.33-2.11c-4.08.78-6.93,4.76-7.46,3.87-.25-.43.44-1.36.5-3.52a10.73,10.73,0,0,0-.37-3.16c-1.12-3.71-7.33-3.34-13.17-3-2.06.13-3.25.34-4.47,1.41-2.3,2-3.37,5.89-3.48,5.8a12.76,12.76,0,0,0,.62-2.64A8.14,8.14,0,0,0,52.69,13c-1.14-2.62-3.82-2.92-6-3.16s-3.76.25-6.95,1.23c-3.57,1.09-4.3,1.95-4.72,2.81-.95,1.92-.57,4.25-1.12,4.39s-.8-2.39-2.49-4A5.55,5.55,0,0,0,28,12.83a5.86,5.86,0,0,0-4,.35,7,7,0,0,0-3.6,4.39,14.14,14.14,0,0,0,.12,6.5c.46,2.48,1.2,4,.87,4.39s-.8-.48-1.86-1.05a5.5,5.5,0,0,0-3.85-.35c-1.69.28-3.13.53-4.23,2.11a10.3,10.3,0,0,0-1.37,4.74,15.66,15.66,0,0,0,.5,7.56A8.36,8.36,0,0,0,14.89,46.43Z" transform="translate(-9.27 -9.21)"/><path class="cls-13" d="M44.92,30.69" transform="translate(-9.27 -9.21)"/><path class="cls-14" d="M60.86,51.08a1.47,1.47,0,0,1-.42-1.29c.09-.72.59-1,1.63-2a14.43,14.43,0,0,0,2.58-3.22,5,5,0,0,0,.65-1.66,4.55,4.55,0,0,0-.52-2.92,1.79,1.79,0,0,0-.46-.57c-.63-.42-1.32.08-2.51.32a3.9,3.9,0,0,1-2.88-.17c-.88-.56-.62-1.44-1.55-1.94a2.65,2.65,0,0,0-1.91-.15c-3.55.73-5.55,4.2-8.55,4.18-1.67,0-1.33-1.1-5.65-2.75-2-.77-2.78-.8-3.31-1.22a1.09,1.09,0,0,1-.3-.33c-.49-.79.32-2,.7-2.8,1.18-2.62-.9-4.06.22-6.16.61-1.15,1.27-.8,3.46-2.61,2.69-2.22,2.07-3,3.4-3.56,3.21-1.23,8,3.15,10.51,2.37a.88.88,0,0,1,.7,0c.52.31.36,1.4.17,3.65,0,0-.14,1.72-.09,4.88a3,3,0,0,0,.51,2.15c.46.47.87.26,1.47.8s.54,1.23,1,1.63c.7.57,1.91,0,3-.5A17.31,17.31,0,0,0,67.42,34c.83-.84,1.3-1.51,2.07-1.52s1.44.49,1.46,1c0,1.13-2.62,2.68-2.91,2.84-.63.36-1.38.7-1.58,1.43a1.72,1.72,0,0,0,0,.82,14.3,14.3,0,0,1,.72,4.26,1.57,1.57,0,0,0,.19.94,1.72,1.72,0,0,0,1.22.68c1.19.27.92.76,3.59,2.42,1.12.7,1.48.8,1.65,1.32a2,2,0,0,1-.63,2.2c-1,.44-2.77-1.43-4.47-3.19-.76-.79-1.45-1.61-2.17-1.4-.27.08-.35.25-.88.89-1.34,1.6-1.57,1.4-2.14,2.33s-.45,1.38-1,1.8A1.46,1.46,0,0,1,60.86,51.08ZM54.32,35c.44-.93,0-1.29-.08-3.66-.06-2.65.5-3,0-3.94S52.7,26,50.52,25.08s-3.05-1.29-4-1-1,.92-3.3,2.95c-1.61,1.41-2.06,1.46-2.53,2.37a6.91,6.91,0,0,0-.49,3.17c0,1.87-.07,2.8.38,3.49.74,1.12,1.6.57,4.07,2,1.62,1,2.25,1.77,3.16,1.52.49-.13.5-.44,1.35-1.08a14.23,14.23,0,0,1,2.4-1.22A5.72,5.72,0,0,0,54.32,35Z" transform="translate(-9.27 -9.21)"/><circle class="cls-15" cx="51.99" cy="42.06" r="2.08"/><circle class="cls-15" cx="64.9" cy="40.42" r="2.08"/><circle class="cls-16" cx="61.69" cy="22.89" r="2.08"/></svg>