<svg id="Layer_1" data-name="Layer 1" xmlns="http://www.w3.org/2000/svg" viewBox="0 0 95.23 92.89"><defs><style>.cls-1{fill:#878787;}.cls-1,.cls-10,.cls-2,.cls-3,.cls-4,.cls-5,.cls-6,.cls-7,.cls-8,.cls-9{stroke:#1d1d1b;stroke-miterlimit:10;}.cls-2{fill:#ca9e67;}.cls-11,.cls-3{fill:#1d1d1b;}.cls-4{fill:#f18732;}.cls-5{fill:#f8f1a0;}.cls-6{fill:#b72424;}.cls-7{fill:#d5edf9;}.cls-8{fill:none;}.cls-9{fill:#fff;}.cls-10{fill:#f7d250;}.cls-12{fill:#f2bb4b;}.cls-13{fill:#d66;}</style></defs><path class="cls-1" d="M51.66,59.41C46,55.13,30.36,41.09,22.73,32.5c-1.29-1.44-4.22-4.85-5.76-4.25-.92.36-1.18,2.1-1,3.41a7.22,7.22,0,0,0,1.43,3.27c4.14,5.58,17,17.11,18.39,18.32,5,4.5,7.52,6.74,8.34,7.62,3.4,3.6,6.47,7.57,8.71,7.14a3.08,3.08,0,0,0,1.56-.87,3.85,3.85,0,0,0,1-2.84C55.19,62.06,52.51,60.06,51.66,59.41Z" transform="translate(-11.57 -5.44)"/><path class="cls-2" d="M16.64,33.74a4,4,0,0,0,2.88-.93c.29-.26,1.41-1.27,1.1-2.41-.23-.85-1.16-1.32-2.43-2-4.46-2.53-5.71-3.91-6.06-3.51s.67,1.63,3.2,6.38C15.9,32.29,16.34,33.16,16.64,33.74Z" transform="translate(-11.57 -5.44)"/><path class="cls-3" d="M14.08,26.1c0,.23-.06.51-.25.57-.55.16-1.88-1.6-1.71-1.86,0-.07.21-.07.7.18A1.58,1.58,0,0,1,14.08,26.1Z" transform="translate(-11.57 -5.44)"/><path class="cls-3" d="M13.83,27.2" transform="translate(-11.57 -5.44)"/><path class="cls-4" d="M66.05,17.5a50.24,50.24,0,0,1,5.32.71,41.76,41.76,0,0,1,7.09,1.89,32,32,0,0,1,10.16,6.26A31.16,31.16,0,0,1,95,34.87,44.09,44.09,0,0,1,98.42,45.5a5.76,5.76,0,0,1,0,2.84,7.49,7.49,0,0,1-1.65,2.72,7.51,7.51,0,0,1,2.59-1.82,1.65,1.65,0,0,1,1.31-.11c.63.28.81,1.12.93,1.63a6.16,6.16,0,0,1,.05,2.08,10.71,10.71,0,0,0,.49,3.87c.53,2.24,1.17,2.59,1.8,5.29a10.57,10.57,0,0,1,.28,2,5.6,5.6,0,0,1-.28,2.51,4.26,4.26,0,0,1-1,1.47c-1.09,1.09-.9,1.47-3,4.58-2.56,3.91-2.7,3.06-4.47,6-.36.58-.86,1.45-1.15,1.36s-.25-1.51-.11-2.4a13.56,13.56,0,0,1,1.69-4.2c2.33-4.64,1.22-3,2.35-5.08a4.51,4.51,0,0,0,.87-2.72,5.15,5.15,0,0,0-.93-2.19c-.44-.65-.58-.6-1.14-1.36a5.66,5.66,0,0,1-1.09-2c-.27-1.08.19-1.33-.06-2.51-.2-1-.77-2-1.09-1.91-.16,0-.22.33-.38,1.37-.22,1.39-.33,2.08-.44,2.89a22.48,22.48,0,0,1-.43,2.62,6.73,6.73,0,0,1-.77,2c-.6,1-1.28,1.15-2.56,2-1.83,1.16-1.47,1.41-4.31,3.5-1.14.83-1,.65-2.35,1.63C81.12,73.24,80.2,74.19,80,74s1.14-2.4,1.47-2.89A23.84,23.84,0,0,1,84.85,67c2.16-2.1,3-2.16,3.76-3.77a13.24,13.24,0,0,0,.71-2.56c.08-.34,0-.23.33-3.93,0-.25.06-.77-.17-.87s-.55.5-1.31.71-1.15-.17-1.41.11,0,.62,0,1.2a3.05,3.05,0,0,1-.88,1.8,13.36,13.36,0,0,1-3.27,2.78c-1.46.9-2.5,1.42-4.2,2.29l-4,2.08c-4.1,2.15-4.74,2.74-9.71,5.4-1.74.93-2.63,1.4-3.6,1.85-1.18.55-2,.89-3.6,1.69A12.33,12.33,0,0,0,55.38,77a25.39,25.39,0,0,1-2,1.69c-1,.67-1.35.73-1.64.71a1.94,1.94,0,0,1-1.31-.71,2.62,2.62,0,0,1-.11-2.24c1.15-4.13.14-3.84,1.9-8.88a49.16,49.16,0,0,1,2.24-5.39c1.79-3.62,2.72-5.49,4.76-7.17,1.17-1,2.46-1.68,2.33-2s-1.72.13-2.24.27C54.65,54.55,44.42,55,39,51.07c-.61-.45-2.19-1.7-2.6-1.35-.24.21,0,.83.36,1.8.12.38.38,1.57.89,3.94.59,2.7.21,2.57.81,5.57.27,1.33.67,3,.9,3.94a24.87,24.87,0,0,1,.63,3,21.46,21.46,0,0,1,.09,3.14c0,2.62-.29,3.14-.63,3.5a1.75,1.75,0,0,1-1.26.63c-.67,0-1.13-.64-1.79-1.61-1.68-2.48-1.78-3.07-2.51-3.86a7.28,7.28,0,0,0-3.23-1.8c-5.76-2.25-8-11.9-8.88-11.57-.13,0-.08.24-.18,1.89a31.71,31.71,0,0,1-.36,3.49c-.21,1.15-.46,2.58-.9,2.61s-.89-1.44-1.08-2.07a12.66,12.66,0,0,1-.53-3.85c.08-3.35,1.09-3.72.89-6.28-.11-1.43-.42-1.2-.81-3.41A14,14,0,0,1,18.62,43a11.19,11.19,0,0,1,2.51-4.93c1.07-1.25,1.82-2.12,3.05-2.33,1.39-.24,2.39.55,3.05-.09a2.9,2.9,0,0,0,.54-1.71,6.26,6.26,0,0,0,0-1.25,21,21,0,0,1,.09-3.05c.17-2.28,2-4.83,4-6.37a6.63,6.63,0,0,1,3.41-1.71c2.13-.2,4.76,1.05,5.38,1.35a5.3,5.3,0,0,0,1.17.45,8.15,8.15,0,0,0,3-.18A7.06,7.06,0,0,0,47,22.72a4.56,4.56,0,0,0,1.53-1.44c.78-1,1.78-1.42,3.77-2.33C57,16.81,63.88,17.34,66.05,17.5Z" transform="translate(-11.57 -5.44)"/><path class="cls-5" d="M87.73,29.69c-1.39.17-2.7,1.93-2.67,3.57a2.94,2.94,0,0,0,.74,2,3,3,0,0,0,1.48.82c1.32.37,3.7.46,4.39-.67C92.68,33.76,90.12,29.39,87.73,29.69Z" transform="translate(-11.57 -5.44)"/><path class="cls-6" d="M89.84,16.65a7.4,7.4,0,0,0-3.24,3.46A11.64,11.64,0,0,0,84.52,27a10.91,10.91,0,0,0,1.11,4,15.54,15.54,0,0,0,7.25,8,9.88,9.88,0,0,0,6.22,1.24,9.13,9.13,0,0,0,5.46-3.32c2.11-2.77,1.79-6,1.59-8.08-.16-1.62-.78-7.92-5.88-11a14.1,14.1,0,0,0-7.8-1.66A6.24,6.24,0,0,0,89.84,16.65Z" transform="translate(-11.57 -5.44)"/><path class="cls-6" d="M52.88,7.19a9.9,9.9,0,0,0-2.41,2.07c-.34.4-1.4,1.71-2.42,5.32-1,3.39-1.45,5.09-.62,6.15.19.26.85,1,4.35,1A27.35,27.35,0,0,0,61.66,20c3.77-1.36,5.44-2.66,6.21-4a4.41,4.41,0,0,0,.63-1.86,4.92,4.92,0,0,0-.76-3c-.9-1.56-2.23-2.3-3.87-3.18-2-1.1-3.66-2-6-2A9.36,9.36,0,0,0,52.88,7.19Z" transform="translate(-11.57 -5.44)"/><path class="cls-7" d="M63.87,25.68a11,11,0,0,0-3,2.45,11.86,11.86,0,0,0-2.31,2.75,8.47,8.47,0,0,0-1.19,3.86,8.53,8.53,0,0,0,1.86,5.43A9.33,9.33,0,0,0,65.06,44a9.18,9.18,0,0,0,6.32-1.34A10.12,10.12,0,0,0,75,38.68a10.05,10.05,0,0,0,1.34-6.39A8.23,8.23,0,0,0,75,28.72a9.09,9.09,0,0,0-6.32-3.56A8.11,8.11,0,0,0,63.87,25.68Z" transform="translate(-11.57 -5.44)"/><path class="cls-3" d="M61.35,37.79c-.2-.13.46-1.69,1.48-3a6.67,6.67,0,0,1,2.83-2.38,3.34,3.34,0,0,1,1.86-.29,3.07,3.07,0,0,1,1.7.89c.57.58.71,1.33,1,2.82a9.38,9.38,0,0,1,.15,3.79c-.16.77-.5,1.81-.74,1.79s-.19-1.56-.9-3.94a3.26,3.26,0,0,0-1-1.86A3,3,0,0,0,65.51,35a4.84,4.84,0,0,0-2.31,1.19C62,37.16,61.49,37.89,61.35,37.79Z" transform="translate(-11.57 -5.44)"/><path class="cls-7" d="M33.25,21.84a6.91,6.91,0,0,0-3,2.4,12.23,12.23,0,0,0-2.76,4.27,10.22,10.22,0,0,0,.27,6.94,8.87,8.87,0,0,0,5.33,5.16,8.14,8.14,0,0,0,5.34-.27,10.05,10.05,0,0,0,4.72-4.27,10,10,0,0,0,1.6-3.38,8.71,8.71,0,0,0-.09-5,9.24,9.24,0,0,0-5-5.16,10.31,10.31,0,0,0-4.18-1A6.21,6.21,0,0,0,33.25,21.84Z" transform="translate(-11.57 -5.44)"/><path class="cls-3" d="M31.77,36c.16,0,.28-1,1.19-2.75.81-1.6,1.26-1.89,1.63-2a2.35,2.35,0,0,1,1.71.22,3.81,3.81,0,0,1,1.56,1.79c.71,1.26.81,2.17,1,2.15s.22-1.22.07-2.38a7.05,7.05,0,0,0-1.19-3.49,3.32,3.32,0,0,0-2.15-1.63,2.36,2.36,0,0,0-1.34.22c-.42.19-1.22.69-1.93,2.75C31.4,33.43,31.5,36,31.77,36Z" transform="translate(-11.57 -5.44)"/><path class="cls-3" d="M47.16,43.84c-.61.18-1.13.66-2,2.6-1.21,2.57-1.81,3.85-1.25,4.81.33.57.91.75,2,1.13a9.77,9.77,0,0,0,4.17.37c1.83-.14,2.95-.23,3.34-1,.17-.32.21-.76-.55-2.45-1.16-2.6-2.1-4.71-4.13-5.38A2.48,2.48,0,0,0,47.16,43.84Z" transform="translate(-11.57 -5.44)"/><path class="cls-7" d="M54.81,51.31a2.57,2.57,0,0,0,.9-1.3c.62-2.12-1.53-5.59-4-5.44a3.84,3.84,0,0,0-3,2.21c.08.11.81-.59,1.3-.34.85.42-.44,2.86.68,4.3A3.3,3.3,0,0,0,54.81,51.31Z" transform="translate(-11.57 -5.44)"/><path class="cls-7" d="M42,51a2.5,2.5,0,0,1-.75-1.3c-.51-2.11,1.26-5.58,3.33-5.43a3.39,3.39,0,0,1,2.49,2.21c-.07.11-.67-.59-1.08-.34-.7.42.36,2.85-.57,4.3A2.4,2.4,0,0,1,42,51Z" transform="translate(-11.57 -5.44)"/><path class="cls-7" d="M54.24,49.44c.36-.22,1-.64,1.08-1.25,0-.85-1.29-1.62-2.38-1.75a2.46,2.46,0,0,0-2.38.79,2,2,0,0,0,.11,2.27C51.52,50.51,53.34,50,54.24,49.44Z" transform="translate(-11.57 -5.44)"/><path class="cls-7" d="M42,48.42a1.78,1.78,0,0,0,.73,1,2.3,2.3,0,0,0,2.78.06A2.05,2.05,0,0,0,46,47.18,2.15,2.15,0,0,0,43.37,46,2.12,2.12,0,0,0,42,48.42Z" transform="translate(-11.57 -5.44)"/><path class="cls-4" d="M46.71,41.35a6.76,6.76,0,0,0-2.49.84A4.66,4.66,0,0,0,42.35,44,3.14,3.14,0,0,0,42,46.55a3.36,3.36,0,0,0,2.27,1.59c1,.33,1.56.33,5.66.17,1.93-.08,2.91-.13,3.68-.8a3,3,0,0,0,1-1.47,3,3,0,0,0-.06-1.75c-.68-2.12-3.63-2.82-4.19-2.94A8.44,8.44,0,0,0,46.71,41.35Z" transform="translate(-11.57 -5.44)"/><path class="cls-4" d="M24.29,35.28c-2.06.34-3.33,2.21-3.89,3-4,5.9-.16,14.77,1,17.39a30.9,30.9,0,0,0,4.86,7.67c2.46,2.86,3.7,4.29,5.4,5a5.23,5.23,0,0,1,2.27,1.51A9.73,9.73,0,0,1,35,72c.8,1.63,1.43,2.9,2.48,3.13a2.33,2.33,0,0,0,1.73-.43c1.55-1.14,1-4.27-.11-10.15-1.91-10.17-2.29-11.74-2.7-13.29-1.18-4.54-1.8-6.85-2.91-8.75C33,41.69,28.79,34.53,24.29,35.28Z" transform="translate(-11.57 -5.44)"/><path class="cls-8" d="M87.39,50.6a23.78,23.78,0,0,0,5.68-1.47c1.74-.7,2.89-1.4,3.3-1s-.59,1.85-1.19,4.71a17,17,0,0,0-.35,2.66" transform="translate(-11.57 -5.44)"/><path class="cls-8" d="M87,47.83a8.38,8.38,0,0,0,3.48-2.61,8.89,8.89,0,0,0,1.61-6.69" transform="translate(-11.57 -5.44)"/><path class="cls-8" d="M76.39,34.68a8.05,8.05,0,0,1,2.16,2.47,8.54,8.54,0,0,1,.71,1.66A10.2,10.2,0,0,1,79.74,41" transform="translate(-11.57 -5.44)"/><path class="cls-8" d="M47,22.72a59.36,59.36,0,0,1,16.91,3" transform="translate(-11.57 -5.44)"/><path class="cls-8" d="M33.87,69.73a15,15,0,0,1,0-4.41c.28-1.69.63-2,.79-2.11.88-.64,2.61-.08,4.39,1.35" transform="translate(-11.57 -5.44)"/><path class="cls-9" d="M12.63,83.91c.54-2.18,3.81-1.69,9.68-5.44A38.54,38.54,0,0,0,27,74.85a59.89,59.89,0,0,0,7.08-7.46c4.29-5.18,4-5.82,7.19-9a16.13,16.13,0,0,1,7.55-4.81c1.07-.27,3.06-.74,4.36.3.79.61.48,1.11,1.56,2.79,1,1.48,1.51,1.59,2.66,3.39s1,2.15.92,2.31C58,63.51,56,63.82,55.52,63.91c-4.66.9-8.9,8.89-17.75,19.31A95.24,95.24,0,0,1,27.7,93.15c-4.05,3.65-6.16,5.18-7.85,4.54-1.52-.56-1.23-2.33-3.47-6.74C13.93,86.13,12.22,85.54,12.63,83.91Z" transform="translate(-11.57 -5.44)"/><path class="cls-10" d="M96.1,22c-2.31,1.23-1.94,4.37-1.92,4.52a3.85,3.85,0,0,0,1.65,2.88,3.94,3.94,0,0,0,3.57-.13,4.37,4.37,0,0,0,2.19-2.34,4.11,4.11,0,0,0-.14-3.29A4.13,4.13,0,0,0,96.1,22Z" transform="translate(-11.57 -5.44)"/><path class="cls-10" d="M54.33,20.14c1.83,1.88,4.74.63,4.88.57a3.83,3.83,0,0,0,2.3-2.39,3.88,3.88,0,0,0-1.14-3.38,4.3,4.3,0,0,0-2.85-1.45,4.11,4.11,0,0,0-3.12,1.06A4.11,4.11,0,0,0,54.33,20.14Z" transform="translate(-11.57 -5.44)"/><path class="cls-10" d="M98.12,36.8A3.52,3.52,0,0,0,96.85,34a4.23,4.23,0,0,0-5.07-.46c-1,.72-1.91,2.19-1.5,3.34.23.65.92,1,2.3,1.73,1.55.8,2.32,1.2,3.12,1A3.24,3.24,0,0,0,98.12,36.8Z" transform="translate(-11.57 -5.44)"/><path class="cls-10" d="M87.29,20.11c-.54,0-.87.82-1.49,2.31s-.9,2.12-.58,2.53c.48.62,2.13.47,3-.46a2.7,2.7,0,0,0,.57-2.19C88.66,21.29,88,20.08,87.29,20.11Z" transform="translate(-11.57 -5.44)"/><path class="cls-10" d="M62.28,7.37c1.23.53,3.83,1.63,4.13,3.17a1.46,1.46,0,0,1-.61,1.53,2.63,2.63,0,0,1-1.55.26c-1.26-.07-3.8-.66-4.71-2.33-.69-1.28-.25-2.89.89-3.1A3.32,3.32,0,0,1,62.28,7.37Z" transform="translate(-11.57 -5.44)"/><path class="cls-10" d="M52.26,8.08c-.84-.07-1.47.8-2.11,1.68-.43.59-1.22,1.69-.85,2.25s1.58.29,2.25.14c1-.21,2.07-.43,2.4-1.26A2.31,2.31,0,0,0,52.26,8.08Z" transform="translate(-11.57 -5.44)"/><path class="cls-11" d="M21.87,90.19c.63,1.07.82,1.48.51,1.76a1.66,1.66,0,0,1-1.57.26A3.36,3.36,0,0,1,19.17,91a9.33,9.33,0,0,1-1.49-3.12c-.41-1.41-.47-2.42-.21-2.64a.38.38,0,0,1,.11-.08c.27-.14.61.11,1,.65s.71,1.07,1.24,1.81c.23.28.37.44.41.51a.6.6,0,0,1,.09.57.21.21,0,0,1-.08.11.65.65,0,0,1-.42.06.66.66,0,0,1-.47-.3l-.15-.42c-.17-.29-.34-.57-.53-.84s-.32-.41-.4-.41,0,.53.37,1.4a9.27,9.27,0,0,0,1.11,2,4.44,4.44,0,0,0,1,1c.4.27.67.33.79.27s.05-.16-.06-.38a8,8,0,0,0-.42-.71L21,90.37c-.23-.24-.22-.47,0-.65a.51.51,0,0,1,.18-.09.44.44,0,0,1,.52.13A.64.64,0,0,1,21.87,90.19Z" transform="translate(-11.57 -5.44)"/><path class="cls-11" d="M24.28,88.41c.65,1,.86,1.39.56,1.64a1.74,1.74,0,0,1-1.56.18,3.69,3.69,0,0,1-1.64-1.15,8,8,0,0,1-1.52-2.74c-.41-1.23-.48-2.1-.24-2.3L20,84c.27-.12.6.1,1,.57s.72.92,1.24,1.57c.24.25.38.38.42.44a.53.53,0,0,1,.1.52.23.23,0,0,1-.08.09.63.63,0,0,1-.41.06.67.67,0,0,1-.47-.26l-.15-.38c-.17-.25-.35-.49-.54-.73s-.32-.36-.39-.35,0,.45.38,1.22a8.62,8.62,0,0,0,1.12,1.78,4.52,4.52,0,0,0,1,.92c.4.25.66.31.78.26s.05-.15-.07-.35a6,6,0,0,0-.43-.65l-.13-.09c-.23-.22-.23-.43,0-.59l.17-.09a.49.49,0,0,1,.52.12A.53.53,0,0,1,24.28,88.41Z" transform="translate(-11.57 -5.44)"/><path class="cls-11" d="M22.91,84.38a5.06,5.06,0,0,0,.55,1.15,6,6,0,0,0,.66.94,4.41,4.41,0,0,0,2,1.42.87.87,0,0,0,.33.08.86.86,0,0,1,.32.08c.11.06.15.13.14.21a.34.34,0,0,1-.15.22.81.81,0,0,1-.56.17,1.5,1.5,0,0,1-.5-.17,5.56,5.56,0,0,1-2.23-1.65,7,7,0,0,1-.76-1.17,9.82,9.82,0,0,1-.77-1.8c-.1-.24-.16-.38-.17-.42a1.05,1.05,0,0,1-.06-.33.18.18,0,0,1,.1-.17.45.45,0,0,1,.41.08,1.08,1.08,0,0,1,.42.45,1,1,0,0,1,.07.15,1.32,1.32,0,0,1,.05.32A1.39,1.39,0,0,0,22.91,84.38Z" transform="translate(-11.57 -5.44)"/><path class="cls-11" d="M27.75,85.78c.68.89.91,1.31.62,1.56a1.66,1.66,0,0,1-1.53.22,4,4,0,0,1-1.65-1,6.73,6.73,0,0,1-1.55-2.29c-.43-1-.52-1.76-.29-2l.11-.07c.25-.14.57,0,1,.36s.71.71,1.24,1.24l.42.35a.46.46,0,0,1,.11.46.22.22,0,0,1-.08.09.73.73,0,0,1-.86-.09s-.06-.12-.15-.31a7.81,7.81,0,0,0-.55-.59c-.19-.18-.31-.28-.38-.27s0,.4.39,1A7.75,7.75,0,0,0,25.73,86a4.48,4.48,0,0,0,1,.78c.4.21.66.26.78.21s0-.14-.09-.33a4.21,4.21,0,0,0-.45-.59L26.89,86c-.24-.18-.24-.37,0-.54l.16-.1a.47.47,0,0,1,.52.06A.46.46,0,0,1,27.75,85.78Z" transform="translate(-11.57 -5.44)"/><path class="cls-11" d="M27.9,84l.81.75c.42.38.73.64.92.85a1,1,0,0,1,.2.15.19.19,0,0,1,.08.14s0,.1-.08.16a1,1,0,0,1-.41.19.69.69,0,0,1-.48,0l-.08-.06s-.05-.08-.08-.17a.46.46,0,0,0-.16-.23,3.9,3.9,0,0,0-.62-.64c-.3-.28-.53-.52-.69-.67-.76-.69-1.39-1.37-1.93-1.86a1.39,1.39,0,0,0-.3-.27,1.11,1.11,0,0,1-.29-.28.7.7,0,0,1-.11-.44.32.32,0,0,1,.14-.26.46.46,0,0,1,.52.08,3.33,3.33,0,0,1,.44.5A26.21,26.21,0,0,0,27.9,84Z" transform="translate(-11.57 -5.44)"/><path class="cls-11" d="M31.33,83.45l.16,0c.11.06.13.2.05.41s-.12.24-.21.45a.77.77,0,0,1,0,.15.7.7,0,0,1-.17.36.65.65,0,0,1-.39.19,1.32,1.32,0,0,1-.56,0l-.09,0a.31.31,0,0,1-.12-.15.2.2,0,0,0-.11-.15,10.25,10.25,0,0,1-3.74-3.2L26,81.38a.43.43,0,0,1-.18-.17.5.5,0,0,1-.08-.27.36.36,0,0,1,.12-.31.37.37,0,0,1,.21-.06.27.27,0,0,0,.09-.11c.07-.15.14-.29.2-.44a.91.91,0,0,1,.17-.28.12.12,0,0,1,.13,0c.16,0,.32.18.5.43a.71.71,0,0,1,.14.32.16.16,0,0,1,0,.12l-.13,0a.19.19,0,0,0-.12.09c-.19.32-.26.51-.22.57a10.19,10.19,0,0,0,3.6,2.92,2,2,0,0,0,.2-.44.79.79,0,0,1,.14-.27C30.84,83.43,31,83.41,31.33,83.45Z" transform="translate(-11.57 -5.44)"/><path class="cls-11" d="M32.55,81.19c.72.83,1,1.31.71,1.61a1.61,1.61,0,0,1-1.49.41,3.9,3.9,0,0,1-1.66-.72,5.46,5.46,0,0,1-1.6-1.82c-.46-.83-.57-1.47-.36-1.74l.1-.1c.23-.21.55-.18.95,0s.7.47,1.24.84a2.63,2.63,0,0,1,.42.23.4.4,0,0,1,.13.43.19.19,0,0,1-.07.11.62.62,0,0,1-.38.19.47.47,0,0,1-.45-.06,2.34,2.34,0,0,1-.17-.27,4.34,4.34,0,0,0-.54-.42c-.19-.12-.32-.17-.38-.14s0,.36.42.87a6.28,6.28,0,0,0,1.18,1.18,4.33,4.33,0,0,0,1,.6c.4.16.67.19.78.11s0-.16-.1-.34a3.73,3.73,0,0,0-.48-.54l-.13-.07c-.24-.15-.25-.34,0-.55a.67.67,0,0,1,.15-.14.44.44,0,0,1,.5,0A.43.43,0,0,1,32.55,81.19Z" transform="translate(-11.57 -5.44)"/><path class="cls-11" d="M36.14,78.88a3.11,3.11,0,0,1-.55,1,2.45,2.45,0,0,1-1.39.89,2.78,2.78,0,0,1-2.15-.48,3,3,0,0,1-1.27-2.23,2.87,2.87,0,0,1,.57-2.34A2,2,0,0,1,33.07,75a3.21,3.21,0,0,1,1.66.6,2.45,2.45,0,0,1,1,1.07,1.13,1.13,0,0,1-.15,1.22,1.07,1.07,0,0,1-1.3.32,4.59,4.59,0,0,1,.39.74.68.68,0,0,1-.07.72,1,1,0,0,1-1.4.17,2.47,2.47,0,0,1-1-1.18A2,2,0,0,1,32,77.21a.25.25,0,0,1,.07-.12.49.49,0,0,1,.27-.16.31.31,0,0,1,.29,0,.18.18,0,0,1,0,.07s0,.11,0,.2-.06.16,0,.21a1.67,1.67,0,0,0,.34,1.05,2,2,0,0,0,.68.76c.1.06.17.07.2,0s0-.09,0-.17-.08-.3-.1-.36a1.23,1.23,0,0,0-.19-.33,1.87,1.87,0,0,0-.39-.38,2.06,2.06,0,0,1-.31-.17c-.12-.13-.1-.28,0-.46a.75.75,0,0,1,.38-.28c.19-.08.49,0,.9.24s.61.23.68.12a.58.58,0,0,0,0-.66,2.25,2.25,0,0,0-1.75-1.1,1.54,1.54,0,0,0-1.16.63,2.07,2.07,0,0,0-.25,1.93A2.65,2.65,0,0,0,32.82,80a1.65,1.65,0,0,0,1.12.24,1.94,1.94,0,0,0,1.11-.71,1.45,1.45,0,0,0,.28-.77.33.33,0,0,0,0-.23.3.3,0,0,1,0-.25.67.67,0,0,1,.33-.21.58.58,0,0,1,.39,0C36.39,78.17,36.41,78.45,36.14,78.88Z" transform="translate(-11.57 -5.44)"/><path class="cls-11" d="M39.69,74a3.12,3.12,0,0,1-.49,1.08,2.49,2.49,0,0,1-1.35,1,2.69,2.69,0,0,1-2.14-.33,2.78,2.78,0,0,1-1.35-2.08,3.18,3.18,0,0,1,.47-2.43,2.11,2.11,0,0,1,1.66-1,2.86,2.86,0,0,1,1.65.46,2.37,2.37,0,0,1,1,1A1.16,1.16,0,0,1,39,73a1.06,1.06,0,0,1-1.27.38,5.21,5.21,0,0,1,.41.74.72.72,0,0,1,0,.74,1,1,0,0,1-1.39.28,2.41,2.41,0,0,1-1-1.1,2.08,2.08,0,0,1-.24-1.43.38.38,0,0,1,.06-.13.58.58,0,0,1,.27-.19.3.3,0,0,1,.28,0l.06.07s0,.11,0,.2-.05.17,0,.22a1.5,1.5,0,0,0,.37,1,2,2,0,0,0,.71.72c.1,0,.17.06.2,0a.2.2,0,0,0,0-.17c-.06-.18-.09-.3-.12-.36a.91.91,0,0,0-.2-.32,1.57,1.57,0,0,0-.4-.35,1.67,1.67,0,0,1-.31-.15c-.12-.11-.12-.27,0-.47a1,1,0,0,1,.37-.32c.19-.09.48,0,.9.18s.61.19.68.08a.59.59,0,0,0,0-.67,1.9,1.9,0,0,0-.68-.67A1.77,1.77,0,0,0,36.53,71a1.6,1.6,0,0,0-1.12.76,2.23,2.23,0,0,0-.17,2,2.5,2.5,0,0,0,1.21,1.57,1.55,1.55,0,0,0,1.12.16,1.92,1.92,0,0,0,1.06-.79,1.52,1.52,0,0,0,.25-.81.32.32,0,0,0,0-.24.33.33,0,0,1,0-.26.61.61,0,0,1,.32-.22.51.51,0,0,1,.38,0C39.91,73.28,39.94,73.56,39.69,74Z" transform="translate(-11.57 -5.44)"/><path class="cls-11" d="M40.79,68.57a14,14,0,0,0,1.49.7.81.81,0,0,0,.21,0,.56.56,0,0,1,.2,0c.09,0,.13.13.11.27a.31.31,0,0,1,0,.1,1,1,0,0,1-.37.3.53.53,0,0,1-.48.09.62.62,0,0,1-.19-.15l-.21-.22c-.37-.17-.74-.34-1.1-.53l-.3.8.89.41.59.26.27.07.26.06a.28.28,0,0,1,.17.17.23.23,0,0,1,0,.22.76.76,0,0,1-.27.22.79.79,0,0,1-.3.11h-.16l-.11-.1-.92-.4c-.42-.18-.69-.31-.8-.37h-.36a.45.45,0,0,1-.3-.09.19.19,0,0,1-.07-.12s0-.11,0-.16A9.62,9.62,0,0,1,37,69a.54.54,0,0,1-.2-.09.36.36,0,0,1-.1-.35.57.57,0,0,1,.09-.22c.19-.27.38-.36.58-.29l.1.06a1,1,0,0,1,.18.28.67.67,0,0,0,.2.3,8.75,8.75,0,0,0,1.43.94c.16-.38.26-.64.3-.77a7.62,7.62,0,0,1-1.7-1.18,1.08,1.08,0,0,1-.27-.15.47.47,0,0,1-.15-.44.3.3,0,0,1,.05-.14.74.74,0,0,1,.34-.26.4.4,0,0,1,.42.06.45.45,0,0,1,.15.25.52.52,0,0,0,.15.26,10.09,10.09,0,0,0,1.47,1,1.13,1.13,0,0,1,.34,0,.67.67,0,0,1,.32,0,.17.17,0,0,1,.09.17C40.8,68.43,40.8,68.5,40.79,68.57Z" transform="translate(-11.57 -5.44)"/><path class="cls-11" d="M44.32,67.37a.31.31,0,0,1,0,.29.65.65,0,0,1-.18.15A.37.37,0,0,0,44,68l-.14.46a1.52,1.52,0,0,1-.11.3.29.29,0,0,1-.12.1.83.83,0,0,1-.65-.08.35.35,0,0,1-.2-.17.14.14,0,0,1,0-.11l.11-.11a.32.32,0,0,0,.11-.13c.13-.41.18-.62.14-.64a19.94,19.94,0,0,1-3.74-1.83,1.19,1.19,0,0,0-.1.44.77.77,0,0,1-.07.37c-.06.1-.2.12-.42.07a.67.67,0,0,1-.17-.08.46.46,0,0,1-.1-.46q.06-.54.18-1.23a.34.34,0,0,1,.32-.18.83.83,0,0,1,.48.09l.09,0a.43.43,0,0,1,.12.2.36.36,0,0,0,.11.19,22.75,22.75,0,0,0,3.95,2,.49.49,0,0,0,.17,0,.56.56,0,0,1,.2,0A.27.27,0,0,1,44.32,67.37Z" transform="translate(-11.57 -5.44)"/><path class="cls-11" d="M41,64.05a2.88,2.88,0,0,0,.65.65,6.36,6.36,0,0,0,.73.52A6.89,6.89,0,0,0,44.5,66a1.12,1.12,0,0,0,.32,0,.85.85,0,0,1,.32,0,.32.32,0,0,1,.19.23.35.35,0,0,1-.07.26.65.65,0,0,1-.48.23,1.84,1.84,0,0,1-.5-.14,9.8,9.8,0,0,1-2.34-.94,6.27,6.27,0,0,1-.86-.62,5.58,5.58,0,0,1-.92-1L40,64a1,1,0,0,1-.09-.21.29.29,0,0,1,.05-.19.56.56,0,0,1,.33-.2.51.51,0,0,1,.41.11l.08.07a1.23,1.23,0,0,1,.09.21A.68.68,0,0,0,41,64.05Z" transform="translate(-11.57 -5.44)"/><path class="cls-11" d="M45.42,63.79c.85.82,1.2,1.34,1,1.58s-.7.37-1.35.25A6.42,6.42,0,0,1,43.34,65a6.31,6.31,0,0,1-1.76-1.35c-.53-.6-.71-1.09-.56-1.37l.08-.11c.17-.23.45-.28.84-.17a9.3,9.3,0,0,1,1.25.53,2.61,2.61,0,0,1,.42.18.35.35,0,0,1,.19.35.14.14,0,0,1,0,.1.73.73,0,0,1-.32.18.52.52,0,0,1-.43,0,2.27,2.27,0,0,1-.2-.21,3.2,3.2,0,0,0-.56-.27q-.28-.12-.36-.06c-.09.06.08.29.52.67a8.42,8.42,0,0,0,1.28.9,8.57,8.57,0,0,0,1.1.54c.41.16.67.21.76.14s0-.14-.16-.32a4.71,4.71,0,0,0-.55-.53l-.13-.06c-.26-.14-.31-.31-.16-.49l.12-.11a.42.42,0,0,1,.48,0A.52.52,0,0,1,45.42,63.79Z" transform="translate(-11.57 -5.44)"/><path class="cls-11" d="M43.37,61a3.8,3.8,0,0,0,.67.64,6.57,6.57,0,0,0,.75.53,10.84,10.84,0,0,0,2.12,1,1.9,1.9,0,0,0,.32.09,1.17,1.17,0,0,1,.32.11.42.42,0,0,1,.2.23.21.21,0,0,1-.07.2.51.51,0,0,1-.46.11,2,2,0,0,1-.5-.2,16.41,16.41,0,0,1-2.36-1.14,9,9,0,0,1-.87-.64,6.49,6.49,0,0,1-1-.93l-.2-.21a.48.48,0,0,1-.09-.19.15.15,0,0,1,0-.15.43.43,0,0,1,.32-.13.6.6,0,0,1,.4.13l.08.07a.78.78,0,0,1,.1.19A.68.68,0,0,0,43.37,61Z" transform="translate(-11.57 -5.44)"/><path class="cls-11" d="M45.91,60.67a.08.08,0,0,1,0,.08l-.1,0a.15.15,0,0,0-.09.08l-.15.41a.41.41,0,0,0,0,.14.28.28,0,0,1,0,.12.34.34,0,0,1-.28,0,.82.82,0,0,1-.36-.13.39.39,0,0,1-.18-.18s0-.06.07-.11a.59.59,0,0,0,.12-.16l.15-.47a.74.74,0,0,1,.09-.21.15.15,0,0,1,.1,0,.83.83,0,0,1,.51.19A.48.48,0,0,1,45.91,60.67Zm1,.69a.06.06,0,0,1,0,.08l-.09,0c-.06,0-.09,0-.09.07s-.11.27-.16.41a.45.45,0,0,0,0,.14.28.28,0,0,1,0,.11.4.4,0,0,1-.29,0,1.35,1.35,0,0,1-.37-.13.44.44,0,0,1-.18-.18s0,0,.07-.11a.5.5,0,0,0,.11-.16l.15-.45a.63.63,0,0,1,.09-.2.14.14,0,0,1,.11,0,1,1,0,0,1,.52.19A.55.55,0,0,1,46.89,61.36Z" transform="translate(-11.57 -5.44)"/><path class="cls-11" d="M47.74,59.64a12.26,12.26,0,0,1,1.7,1.4c.55.54.82.89.78,1a.11.11,0,0,1-.09.1l-.18,0c-.5.12-1.77-.44-3.58-1.54A7.71,7.71,0,0,1,45,59.51a2.52,2.52,0,0,1-.66-.88.09.09,0,0,1,0-.09l.12,0a.23.23,0,0,0,.11,0l.09-.12a.38.38,0,0,1,.1-.13.16.16,0,0,1,.09,0C45.38,58.17,46.31,58.67,47.74,59.64Zm-.38.24c-.55-.36-1-.62-1.27-.79-.49-.28-.78-.38-.88-.3a.12.12,0,0,0,0,.11c0,.05.16.24.51.56a8.39,8.39,0,0,0,1.07.86,15.76,15.76,0,0,0,1.52.88c.58.31.91.46,1,.42s-.1-.25-.49-.62a9.85,9.85,0,0,0-1.21-1Z" transform="translate(-11.57 -5.44)"/><path class="cls-11" d="M48.62,59.46c.22.16.52.41.93.76s.85.77,1.09,1l.25.23a.66.66,0,0,1,.12.16s0,.07,0,.08a.6.6,0,0,1-.32-.05,1.7,1.7,0,0,1-.45-.26l-.09-.08a.67.67,0,0,1-.13-.17,1.64,1.64,0,0,0-.22-.25,9,9,0,0,0-.76-.68c-.34-.28-.6-.49-.79-.62a18.7,18.7,0,0,0-2-1.33,2,2,0,0,0-.29-.14L45.63,58a.44.44,0,0,1-.18-.24.12.12,0,0,1,0-.15.48.48,0,0,1,.41,0,3.88,3.88,0,0,1,.45.29C47.06,58.36,47.81,58.86,48.62,59.46Z" transform="translate(-11.57 -5.44)"/><path class="cls-11" d="M49.89,58.84a14,14,0,0,1,1.74,1.64c.56.62.84,1,.82,1.09s0,0-.08,0l-.17,0a22,22,0,0,1-3.57-2.36A17.68,17.68,0,0,1,47.2,58a3.09,3.09,0,0,1-.68-.79s0,0,0-.06h.22l.08-.07.08-.06A.14.14,0,0,1,47,57,9.76,9.76,0,0,1,49.89,58.84Zm-.35.06c-.56-.43-1-.72-1.27-.92-.49-.33-.78-.47-.88-.44s0,0,0,.07a3,3,0,0,0,.53.53c.38.35.75.66,1.09.92s1,.72,1.54,1.13a5.41,5.41,0,0,0,1,.66c.06,0-.12-.23-.52-.65a11.91,11.91,0,0,0-1.24-1.15Z" transform="translate(-11.57 -5.44)"/><path class="cls-11" d="M50.72,59c.22.19.53.48.94.9a14.06,14.06,0,0,1,1.12,1.23l.25.28a1.08,1.08,0,0,1,.13.19s0,.06,0,0a1,1,0,0,1-.3-.17,2.74,2.74,0,0,1-.45-.39.47.47,0,0,1-.1-.1l-.14-.18a1.14,1.14,0,0,0-.23-.28,7.21,7.21,0,0,0-.77-.81c-.35-.34-.61-.57-.8-.73a19.28,19.28,0,0,0-2-1.53,1.91,1.91,0,0,0-.29-.18,2.32,2.32,0,0,1-.28-.18.57.57,0,0,1-.19-.21c0-.05,0-.08,0-.08a.6.6,0,0,1,.39.12,4,4,0,0,1,.46.31A25.36,25.36,0,0,1,50.72,59Z" transform="translate(-11.57 -5.44)"/><path class="cls-11" d="M54.32,61.39a4.06,4.06,0,0,1,.37.54c.08.14.09.2,0,.16a4.86,4.86,0,0,1-.87-.84l-.29-.33-.29-.32c-.33-.3-.63-.58-.92-.83-.71-.6-1.27-1-1.7-1.34A29.73,29.73,0,0,1,53.28,61l.22.22.27.3a3.07,3.07,0,0,1,.2.27c.08.12.09.17,0,.15a1.33,1.33,0,0,1-.34-.24c-.16-.14-.32-.29-.47-.45A2.05,2.05,0,0,1,53,61a1.09,1.09,0,0,0-.13-.17,32.27,32.27,0,0,0-4.1-3.6l-.1-.07-.1-.07a.3.3,0,0,1-.11-.13s0-.05.05-.05A.94.94,0,0,1,49,57l.17.12.09.07.09.07,0,0a36.77,36.77,0,0,1,3.3,2.51A26.91,26.91,0,0,0,49.47,57l-.14-.1-.12-.08a.61.61,0,0,1-.16-.16s0,0,0-.06a1.1,1.1,0,0,1,.33.12,1.89,1.89,0,0,1,.44.26.7.7,0,0,1,.15.14.35.35,0,0,0,.1.11,23.59,23.59,0,0,1,3.67,3.52c.06.08.16.18.28.31S54.25,61.3,54.32,61.39Z" transform="translate(-11.57 -5.44)"/><path class="cls-4" d="M81,40.9c-2.38-.06-4.14,1-5.84,2.05-6,3.7-8.94,5.56-9.29,5.83A43.36,43.36,0,0,0,56,59.26a44.82,44.82,0,0,0-4.33,8.86,23.58,23.58,0,0,0-1.51,9.72c0,.39.14,1.14.65,1.41.83.44,2.12-.75,3.78-1.84s1.68-.81,5.19-2.48c6.12-2.93,7.54-4.42,14.9-8.1a52,52,0,0,0,8-4.65c2.53-1.83,3.51-2.93,4.1-4.32.41-.94.54-1.8.22-6.27-.56-7.77-1.22-8.82-2-9.5A6.25,6.25,0,0,0,81,40.9Z" transform="translate(-11.57 -5.44)"/><path class="cls-8" d="M51.62,68.12a5.26,5.26,0,0,1,3.94-1.07,3.65,3.65,0,0,1,2.27,1.18,4.32,4.32,0,0,1,.63,3.37,9,9,0,0,1-2.22,4.89" transform="translate(-11.57 -5.44)"/><path class="cls-4" d="M48,25.25a1,1,0,0,0-.14,2.09,1.19,1.19,0,0,0,1-1.51A1,1,0,0,0,48,25.25Z" transform="translate(-11.57 -5.44)"/><path class="cls-4" d="M52.33,25.43a1,1,0,0,0-.14,2.09,1.17,1.17,0,0,0,1-1.51A1,1,0,0,0,52.33,25.43Z" transform="translate(-11.57 -5.44)"/><path class="cls-4" d="M56.9,26.3a1,1,0,0,0-.15,2.08,1.18,1.18,0,0,0,1-1.51A1,1,0,0,0,56.9,26.3Z" transform="translate(-11.57 -5.44)"/><path class="cls-4" d="M50.12,28.8a1.05,1.05,0,0,0-1.4.44,1,1,0,0,0,.38,1.37,1.17,1.17,0,0,0,1.55-.92A1,1,0,0,0,50.12,28.8Z" transform="translate(-11.57 -5.44)"/><path class="cls-4" d="M54.49,29.07a1.06,1.06,0,0,0-1.41.44,1,1,0,0,0,.38,1.37A1.18,1.18,0,0,0,55,30,1,1,0,0,0,54.49,29.07Z" transform="translate(-11.57 -5.44)"/><path class="cls-12" d="M77.47,47.49a29.91,29.91,0,0,1-4.27,2.33A8.12,8.12,0,0,0,69.46,53a2.3,2.3,0,0,0,2.44,3.54,4.16,4.16,0,0,0,1.48-.44,2.1,2.1,0,0,1,1.14-.25,21.91,21.91,0,0,1,3.33.29A1,1,0,0,0,79,55.7a1.7,1.7,0,0,0,.24-.76c0-.11,0-.7-.06-.73s0-.07-.13.18l.06,0,.33-.1a2.26,2.26,0,0,0,1-.57,1.62,1.62,0,0,0,.37-.63c0-.11.06-.33.1-.39l-.35.36c-.53-.08-.66-.06-.4.07l.23.14a2.22,2.22,0,0,0,.6.24,1.48,1.48,0,0,0,1.41-.41,2.57,2.57,0,0,0,.28-2.52A5,5,0,0,0,79,47a1.94,1.94,0,0,0-2.38,1.39A3.88,3.88,0,0,0,77,50.91,1.84,1.84,0,0,0,79.13,52a2.38,2.38,0,0,0,1.44-2.5,1,1,0,0,0-2-.27,2.57,2.57,0,0,0,1.66,3.18,1,1,0,0,0,1.13-.46A1.75,1.75,0,0,0,81,49.61a2.7,2.7,0,0,0-1.13-.47c-.25,0-.79,0-1-.19a1,1,0,0,0-1.41,0,4.06,4.06,0,0,0-.27,5,1,1,0,0,0,1.57.21,2.8,2.8,0,0,0,.9-2.23A1.69,1.69,0,0,0,78,50.29c-1.71,0-3,2.53-1.53,3.7A1,1,0,0,0,78,52.78l-1.15-2.6a1,1,0,0,0-1.37-.36c-1.62,1.24-1.21,3.11-.41,4.72l1.57-1.22a17.7,17.7,0,0,0-1.46-1.41,4,4,0,0,0-1.68-1,1.66,1.66,0,0,0-1.7.77,2.67,2.67,0,0,0-.15,2.18l.7-1.23a1.67,1.67,0,0,1-.94,0l-.26,2A54.71,54.71,0,0,1,77,54.4c1.28.05,1.28-1.95,0-2a54.71,54.71,0,0,0-5.87.1,1,1,0,0,0-.27,2,3.67,3.67,0,0,0,2,0,1,1,0,0,0,.7-1.23,4.42,4.42,0,0,0-.1-.5c0-.08,0-.1,0-.07l-.43.07a6.43,6.43,0,0,0,.72.55,17.52,17.52,0,0,1,1.45,1.41c.81.87,2.06-.24,1.57-1.21-.19-.39-.84-1.57-.3-2l-1.36-.36,1.14,2.6,1.57-1.21c-.18-.14,0,0-.08,0a.9.9,0,0,1,.15-.19c.18-.17.38-.07-.06-.25s-.21-.14-.27.13a.86.86,0,0,1-.31.46l1.57.2a2.12,2.12,0,0,1,0-2.59H77.41a2.71,2.71,0,0,0,1.45.65,4,4,0,0,0,.68.11c.34,0,0,0,.12-.19l1.13-.46a.55.55,0,0,1-.26-.71l-2-.27a4.73,4.73,0,0,0,0,.52c0,.17-.11,0,.07.08s.17.09.14-.06a1.76,1.76,0,0,0-.1-.3,2.51,2.51,0,0,1-.06-.77s0-.05,0-.07q-.22.07,0,.06l.16,0a2.66,2.66,0,0,1,1.45,1,3.66,3.66,0,0,1,.44.77,7.53,7.53,0,0,0,.24.88c.09.14-.26.22.27,0,.34-.16.28-.12,0-.27a1.82,1.82,0,0,0-.93-.29,1.3,1.3,0,0,0-1.05.58,1.35,1.35,0,0,0-.22.47c0,.09,0,.18,0,.27s.06,0,.08-.08.09-.09,0,0c0,0,0,0,0,0s-.28.09-.41.13a2.51,2.51,0,0,0-.85.46,1.66,1.66,0,0,0-.49.85,1.82,1.82,0,0,0,0,.57l.06.43c0,.07,0,.06,0-.06l1.13-.46a27.3,27.3,0,0,0-2.85-.32,5.73,5.73,0,0,0-2.7.24,4.07,4.07,0,0,1-.91.4c-.2,0-.69.1-.85-.08.06.07,0-.22.07-.32a2.08,2.08,0,0,1,.43-.71c1.8-2.06,4.75-2.62,6.91-4.22a1,1,0,0,0,.36-1.37,1,1,0,0,0-1.37-.36Z" transform="translate(-11.57 -5.44)"/><path class="cls-12" d="M54.2,68.88c-1.56-.27-1.91,1.51-2.2,2.65A18.09,18.09,0,0,0,51.51,75a1,1,0,0,0,1.7.71,5.7,5.7,0,0,0,1.06-1.39,3.83,3.83,0,0,0,.58-1.85,1.74,1.74,0,0,0-.11-.55c-.11-.26-.14-.32-.07-.18,0-.12,0-.13,0,0s.11-.28,0,0a3.78,3.78,0,0,1,.17-.35l.21-.33c.07-.09.08-.1,0,0l.12-.15c.16-.18.35-.32.52-.49a1.38,1.38,0,0,0-.33-2.12,1.67,1.67,0,0,0-2,.27A1.56,1.56,0,0,0,53,70.45c.54.85,1.51.43,2.26.21a1,1,0,0,0-.53-1.93l-.51.15L54,69l-.12,0c-.08,0-.07,0,0,0l.51.13-.06,0,.36.36c.12.15,0,.37.05.52s0,.06,0,0,0,0,0,0l0-.06-.07.06s-.25,0-.16,0-.14,0-.18,0l-.21-.2c.27-.7.3-1,.07-.75a2.89,2.89,0,0,0-.32.29,5,5,0,0,0-1.16,1.85,1.85,1.85,0,0,0,0,1.23s.12.37.08.18c0,.22,0,0,0,0l-.06.17a2.25,2.25,0,0,1-.08.24c-.07.17.1-.2,0,.08l-.09.18a3.7,3.7,0,0,1-.25.43l-.14.21c-.11.14.14-.17-.06.07s-.22.25-.34.37l1.71.7a12.14,12.14,0,0,1,.3-2.42c.08-.41.18-.81.3-1.21.07-.22.13-.43.21-.65l0-.1c.06-.14,0-.15,0,0l0-.07a.65.65,0,0,1-.72.23,1,1,0,0,0,1.23-.7,1,1,0,0,0-.7-1.23Z" transform="translate(-11.57 -5.44)"/><path class="cls-12" d="M20.68,43c-1.38,4.16.51,8.34,2.22,12.1,1.47,3.24,2.73,7.25,6.29,8.75.87.36,1.48-.78,1.12-1.47-3.06-5.93-8.51-11.61-8-18.73.09-1.28-1.91-1.28-2,0-.51,7.55,5.07,13.46,8.31,19.74L29.72,62a6.31,6.31,0,0,1-2.86-3.06c-.84-1.54-1.51-3.18-2.24-4.77-1.48-3.26-3.21-6.94-2-10.56.4-1.23-1.53-1.75-1.93-.53Z" transform="translate(-11.57 -5.44)"/><path class="cls-12" d="M46.63,44.42c0-.09,0-.09,0,0a.33.33,0,0,1-.06.19c.08-.15-.12.09,0,0s0,0,0,0,.16-.18,0,0c.06-.06.32-.08.4-.1l.45-.1.4-.13.21,0c.23-.07-.14,0,0,0h.06c.09,0,.09,0,0,0s-.09,0,0,0h.06c.2,0-.18-.09,0,0L48,44.17c.08.08.06.06,0-.06l.87-1.5a10.17,10.17,0,0,0-1.46,0,7.67,7.67,0,0,0-1.58.26,1.27,1.27,0,0,0-.87.83A1.13,1.13,0,0,0,45.44,45a3.28,3.28,0,0,0,1.68.22,15.75,15.75,0,0,0,3.07-.13,1.28,1.28,0,0,0,1-.59,1.14,1.14,0,0,0-.2-1.36,2.59,2.59,0,0,0-1.66-.57,8.92,8.92,0,0,0-3.33.28,1,1,0,0,0,0,1.93,17.42,17.42,0,0,0,3.74.28,1,1,0,0,0,1-1,1,1,0,0,0-1-1c-.56,0-1.13,0-1.7,0L47.2,43h-.13l-.14,0-.44-.09v1.93c.32-.09.64-.15,1-.21h.07l.22,0,.51,0c.32,0,.63,0,.94,0,0,0,.31,0,.08,0a1.87,1.87,0,0,1,.25,0l.23,0-.13,0a.74.74,0,0,1-.3-.39v-.53l.07-.15.6-.46a1.93,1.93,0,0,1-.52.11c.22,0,0,0-.08,0l-.26,0c-.34,0-.68,0-1,0l-1,0H46.3c-.3,0,.06,0,.15.07l.35.36,0,0,.13.51c-.67.6-.83.84-.49.73l.17,0,.35-.07.17,0,.35,0a8.3,8.3,0,0,1,1.41,0,1,1,0,0,0,.86-1.5,1.87,1.87,0,0,0-1.5-.87,3.93,3.93,0,0,0-1.39.26,5,5,0,0,0-1.34.43,1.73,1.73,0,0,0-.87,1.49,1,1,0,0,0,1,1,1,1,0,0,0,1-1Z" transform="translate(-11.57 -5.44)"/><path class="cls-12" d="M66.35,21.81a8.52,8.52,0,0,1,3.66,0,32.29,32.29,0,0,1,3.91.56,14,14,0,0,1,6.45,3l.2-1.57c.2,0,.2,0,0-.06l-.44-.1-.86-.21L77.68,23l-3.33-.79-3.19-.75a4.35,4.35,0,0,0-2.85.11c-.81.34-.54,1.64.24,1.83l4.85,1.15a13.7,13.7,0,0,1,4.19,1.29L78.37,24a69.6,69.6,0,0,0-12.24-3.53c-1-.2-1.83,1.26-.77,1.83a15.46,15.46,0,0,0,7.49,1.54,14.34,14.34,0,0,1,7.32,1.71,1,1,0,0,0,1-1.73,15.31,15.31,0,0,0-7.15-2,40.7,40.7,0,0,1-4.13-.13,10.24,10.24,0,0,1-3.53-1.15L65.6,22.4a69.25,69.25,0,0,1,12.23,3.53c1.1.43,1.69-1.24.77-1.82a13.84,13.84,0,0,0-4.37-1.42l-5.15-1.23.24,1.83a2.26,2.26,0,0,1,1.31.09l1.6.38,3.33.78,3.18.75c.86.2,2,.72,2.84.16a1,1,0,0,0,.2-1.57,16,16,0,0,0-7.33-3.48A38.89,38.89,0,0,0,70,19.77a9.54,9.54,0,0,0-4.19.11c-1.2.44-.68,2.37.53,1.93Z" transform="translate(-11.57 -5.44)"/><path class="cls-12" d="M65.08,56.25a5.61,5.61,0,0,0-2.84,1.85,5.32,5.32,0,0,0-.55.79,1.71,1.71,0,0,0-.22.8,1.2,1.2,0,0,0,.5,1,2.25,2.25,0,0,0,2.27,0,3.1,3.1,0,0,0,1.44-1.42,1,1,0,0,0,.1-.77,1,1,0,0,0-.46-.6A1,1,0,0,0,64,58.2a1.9,1.9,0,0,1-.23.39l.15-.2a2.65,2.65,0,0,1-.41.41l.2-.16a2.16,2.16,0,0,1-.51.29l.24-.1a2.38,2.38,0,0,1-.52.15l.27,0a1.09,1.09,0,0,1-.36,0L63,59l-.14,0,.24.1-.06,0,.2.15-.05-.05.16.2a.16.16,0,0,1,0-.07l.1.24v0l0,.26v-.09l0,.27a.74.74,0,0,1,0-.14l-.11.24a3.87,3.87,0,0,1,.41-.64l-.15.2a4.66,4.66,0,0,1,.83-.83l-.2.16a4.61,4.61,0,0,1,1-.62l-.24.1.54-.19a1,1,0,1,0-.53-1.92Z" transform="translate(-11.57 -5.44)"/><path class="cls-12" d="M91.86,51.66a8.75,8.75,0,0,1,0,2l0-.26c-.06.39-.14.79-.24,1.18a1,1,0,0,0,1.93.53,9.93,9.93,0,0,0,.31-3.43,1.05,1.05,0,0,0-.29-.71,1,1,0,0,0-.71-.29,1,1,0,0,0-1,1Z" transform="translate(-11.57 -5.44)"/><path class="cls-12" d="M98.44,54l.28-.25-.21.16a1.09,1.09,0,0,1,.23-.14l-.24.1.15,0-.27,0h.12l-.27,0,.09,0-.24-.1a.24.24,0,0,1,.11.06l-.2-.16a.8.8,0,0,1,.13.13L98,53.6c.13.17.24.36.36.55s.22.4.31.61l-.1-.24a3,3,0,0,1,.19.65l0-.26s0,0,0,.07a.65.65,0,0,0,.09.38.76.76,0,0,0,.2.32,1,1,0,0,0,.71.3,1,1,0,0,0,.71-.3,1,1,0,0,0,.29-.7,4.16,4.16,0,0,0-.13-.72,5,5,0,0,0-.26-.64,7.4,7.4,0,0,0-.5-.86,1.76,1.76,0,0,0-.4-.5,1.38,1.38,0,0,0-1-.38A2,2,0,0,0,97,52.6,1,1,0,0,0,97,54a1,1,0,0,0,.71.3,1,1,0,0,0,.7-.3Z" transform="translate(-11.57 -5.44)"/><path class="cls-13" d="M103,28.79c-.4,1.4,0,2.8-.14,4.21a4.79,4.79,0,0,1-.44,1.46,6.17,6.17,0,0,1-.48.77s-.17.18-.23.26-.12.11-.05.06a1.83,1.83,0,0,1,.33,0l.44.26c.09.24.13.3.1.18l0-.19c0-.14,0-.28-.08-.42l-.07-.42,0-.13c0-.27-.05-.19-.06.25l-.36.36c-.23.06-.25.07-.06,0a1,1,0,0,0,.24-.05,1.36,1.36,0,0,0,.33-.14,2.25,2.25,0,0,0,.6-.55,7.92,7.92,0,0,0,.72-1.18,10.75,10.75,0,0,0,.94-2.69,1,1,0,1,0-1.93-.53,8.69,8.69,0,0,1-1.22,3c0,.07-.11.15-.11.16s-.08,0,0,0,.44-.07.07,0a1.22,1.22,0,0,0-1,.74,3.71,3.71,0,0,0,.13,2A1.33,1.33,0,0,0,102,37.51a2.49,2.49,0,0,0,1.57-1.18,6.48,6.48,0,0,0,1.25-3.15c.16-1.28-.26-2.61.09-3.86a1,1,0,0,0-.7-1.23,1,1,0,0,0-1.23.7Z" transform="translate(-11.57 -5.44)"/><path class="cls-13" d="M49.26,14.55,48.89,17a4.81,4.81,0,0,0,0,2.71,1.57,1.57,0,0,0,2.44.48,1.5,1.5,0,0,0,.21-1.71c-.06-.15-.15-.29-.22-.43a.83.83,0,0,1-.07-.13c-.07-.1,0,.07,0,.07l-.1-.28-.06-.25a.43.43,0,0,0,0-.11c0-.24,0,.15,0,0s0-.38,0-.57c0-.41.05-.81.1-1.22a1,1,0,0,0-1-1,1,1,0,0,0-1,1,8,8,0,0,0,0,2.39,3.77,3.77,0,0,0,.43,1.14l.15.25c0,.09,0,.09,0,0a.31.31,0,0,1,0-.19.67.67,0,0,1,.49-.58c-.1,0-.06,0,.13,0-.08,0-.07,0,0,0s.11,0,0,0c.16.07.19.09.1,0,.13.11.15.13.08.06.1.14.12.17.06.06.1.2,0,0,0,0,0,.15,0,.16,0,.05v-.14c0-.05,0-.31,0,0,0-.11,0-.22.05-.33l.09-.62.39-2.57a1.14,1.14,0,0,0-.1-.77,1.1,1.1,0,0,0-.6-.46,1,1,0,0,0-1.23.7Z" transform="translate(-11.57 -5.44)"/></svg>