<svg id="Layer_1" data-name="Layer 1" xmlns="http://www.w3.org/2000/svg" viewBox="0 0 128.08 154.25"><defs><style>.cls-1{fill:#f18732;}.cls-1,.cls-10,.cls-11,.cls-12,.cls-13,.cls-14,.cls-15,.cls-2,.cls-3,.cls-4,.cls-5,.cls-6,.cls-7,.cls-8{stroke:#1d1d1b;stroke-miterlimit:10;}.cls-1,.cls-2,.cls-3,.cls-4,.cls-5,.cls-6,.cls-7{stroke-width:0.93px;}.cls-2{fill:#f8f1a0;}.cls-14,.cls-3{fill:#b72424;}.cls-12,.cls-4{fill:#d5edf9;}.cls-10,.cls-5{fill:#1d1d1b;}.cls-6{fill:none;}.cls-7{fill:#f7d250;}.cls-8{fill:#c6c6c6;}.cls-9{fill:#b2b2b2;}.cls-10{stroke-width:1.14px;}.cls-11{fill:#fff;stroke-width:0.43px;}.cls-12{stroke-width:1.13px;}.cls-13{fill:#b6b7b6;}.cls-13,.cls-14,.cls-15{stroke-width:0.84px;}.cls-15{fill:#2e72b7;}</style></defs><path class="cls-1" d="M99,87.53a44.8,44.8,0,0,1,5,.56,37,37,0,0,1,6.65,1.63,29.52,29.52,0,0,1,9.61,5.65,29.09,29.09,0,0,1,6.13,7.82,41.44,41.44,0,0,1,3.4,9.86,5.45,5.45,0,0,1,.06,2.65,6.91,6.91,0,0,1-1.5,2.57,7.18,7.18,0,0,1,2.39-1.75,1.58,1.58,0,0,1,1.22-.13c.59.26.78,1,.9,1.52a5.57,5.57,0,0,1,.09,1.93,9.91,9.91,0,0,0,.53,3.61c.53,2.08,1.14,2.39,1.78,4.91a10.24,10.24,0,0,1,.3,1.83,5.29,5.29,0,0,1-.21,2.35,4,4,0,0,1-.94,1.39c-1,1-.81,1.39-2.66,4.34-2.32,3.69-2.46,2.91-4.07,5.69-.32.56-.76,1.38-1,1.3s-.27-1.41-.15-2.24a12.9,12.9,0,0,1,1.5-4c2.09-4.38,1.08-2.79,2.09-4.78a4.23,4.23,0,0,0,.77-2.57,4.9,4.9,0,0,0-.91-2c-.43-.6-.56-.55-1.1-1.25a5.34,5.34,0,0,1-1.06-1.87c-.27-1,.15-1.25-.1-2.34-.21-.93-.76-1.82-1-1.76s-.2.31-.33,1.28c-.18,1.3-.27,2-.35,2.71a21.65,21.65,0,0,1-.36,2.45,6.33,6.33,0,0,1-.68,1.85c-.54.9-1.18,1.11-2.35,1.89-1.69,1.11-1.35,1.33-4,3.34-1,.81-.92.63-2.16,1.58-2.27,1.72-3.11,2.62-3.32,2.46s1-2.27,1.32-2.73a22.71,22.71,0,0,1,3.08-3.94c2-2,2.77-2.08,3.45-3.59a12.18,12.18,0,0,0,.61-2.4,35.72,35.72,0,0,0,.23-3.68c0-.23,0-.72-.17-.81s-.5.47-1.21.69-1.08-.14-1.32.12,0,.58,0,1.13a2.81,2.81,0,0,1-.78,1.69,12.45,12.45,0,0,1-3,2.67c-1.35.87-2.31,1.37-3.88,2.22,0,0-1.16.62-3.68,2-3.79,2.09-4.38,2.65-9,5.23-1.61.91-2.43,1.37-3.33,1.8-1.09.54-1.89.87-3.33,1.65a12,12,0,0,0-2,1.22c-.67.56-.9.95-1.8,1.61s-1.25.71-1.52.7a1.78,1.78,0,0,1-1.23-.64,2.45,2.45,0,0,1-.15-2.09c1-3.88,0-3.59,1.6-8.33a47,47,0,0,1,2-5.07c1.6-3.42,2.43-5.18,4.3-6.8,1.08-.93,2.28-1.61,2.14-1.89s-1.6.16-2.09.3c-4.36,1.24-13.9,1.88-19.06-1.7-.58-.41-2.08-1.55-2.45-1.21-.22.19.06.78.37,1.67.12.35.38,1.46.91,3.67.6,2.51.25,2.39.86,5.18.28,1.24.68,2.77.92,3.67a23.54,23.54,0,0,1,.64,2.75,19.09,19.09,0,0,1,.14,2.93c0,2.44-.21,2.93-.52,3.28a1.63,1.63,0,0,1-1.16.61c-.62,0-1.07-.58-1.7-1.47-1.62-2.28-1.72-2.83-2.42-3.56a7,7,0,0,0-3-1.61c-5.42-2-7.7-11-8.52-10.64-.12,0-.07.22-.13,1.77a28.47,28.47,0,0,1-.27,3.27c-.17,1.08-.38,2.41-.79,2.45s-.86-1.33-1-1.91a12.06,12.06,0,0,1-.58-3.59c0-3.13.95-3.5.72-5.88-.14-1.33-.42-1.11-.82-3.17a12.79,12.79,0,0,1-.28-5.36,10.33,10.33,0,0,1,2.25-4.66c1-1.18,1.66-2,2.8-2.23s2.24.46,2.85-.15a2.67,2.67,0,0,0,.47-1.6,5.81,5.81,0,0,0,0-1.17,20.3,20.3,0,0,1,0-2.85c.12-2.13,1.75-4.55,3.65-6a6.13,6.13,0,0,1,3.15-1.66,11,11,0,0,1,5,1.16,5,5,0,0,0,1.1.39,7.33,7.33,0,0,0,2.84-.22,6.19,6.19,0,0,0,1.92-.46,4.35,4.35,0,0,0,1.4-1.37c.71-.93,1.63-1.37,3.47-2.25C90.52,87.06,97,87.42,99,87.53Z" transform="translate(-9.27 -9.21)"/><path class="cls-2" d="M119.51,98.49a3.42,3.42,0,0,0-2.43,3.38,2.82,2.82,0,0,0,.73,1.86,2.86,2.86,0,0,0,1.41.74c1.23.32,3.45.35,4.08-.71C124.21,102.2,121.73,98.16,119.51,98.49Z" transform="translate(-9.27 -9.21)"/><path class="cls-3" d="M121.23,86.27a7,7,0,0,0-3,3.29,11,11,0,0,0-1.8,6.43,10.13,10.13,0,0,0,1.11,3.72,14.48,14.48,0,0,0,6.93,7.35,9.19,9.19,0,0,0,5.83,1,8.56,8.56,0,0,0,5-3.21c1.92-2.62,1.57-5.6,1.33-7.57-.18-1.52-.88-7.39-5.7-10.15a13.24,13.24,0,0,0-7.32-1.4A5.87,5.87,0,0,0,121.23,86.27Z" transform="translate(-9.27 -9.21)"/><path class="cls-3" d="M86.53,78.15a9.14,9.14,0,0,0-2.22,2c-.31.38-1.27,1.63-2.15,5-.84,3.18-1.25,4.77-.46,5.75.19.24.81.9,4.08.88A25.76,25.76,0,0,0,95,89.92c3.5-1.35,5-2.6,5.73-3.87a4.15,4.15,0,0,0,.54-1.75,4.59,4.59,0,0,0-.76-2.76,8,8,0,0,0-3.68-2.89c-1.92-1-3.45-1.77-5.65-1.76A8.77,8.77,0,0,0,86.53,78.15Z" transform="translate(-9.27 -9.21)"/><path class="cls-4" d="M97.15,95.2a10.37,10.37,0,0,0-2.8,2.35,11.52,11.52,0,0,0-2.1,2.61,7.43,7.43,0,0,0,.81,8.67,8.7,8.7,0,0,0,5.55,3.42,8.57,8.57,0,0,0,5.88-1.37,10.45,10.45,0,0,0,4.45-9.74,7.77,7.77,0,0,0-1.32-3.31,8.56,8.56,0,0,0-6-3.21A7.65,7.65,0,0,0,97.15,95.2Z" transform="translate(-9.27 -9.21)"/><path class="cls-4" d="M68.48,92.21a6.5,6.5,0,0,0-2.78,2.3,11.41,11.41,0,0,0-2.49,4,9.6,9.6,0,0,0,.38,6.48,8.34,8.34,0,0,0,5.09,4.71,7.66,7.66,0,0,0,5-.35A9.45,9.45,0,0,0,78,105.31a9.81,9.81,0,0,0,1.43-3.18,8.22,8.22,0,0,0-.18-4.66,8.64,8.64,0,0,0-4.75-4.72,9.58,9.58,0,0,0-3.93-.83A5.62,5.62,0,0,0,68.48,92.21Z" transform="translate(-9.27 -9.21)"/><path class="cls-5" d="M81.9,112.48c-.57.19-1.05.65-1.86,2.48-1.07,2.42-1.61,3.63-1.07,4.51.32.52.86.69,1.93,1a9.1,9.1,0,0,0,3.9.26c1.71-.17,2.75-.27,3.1-1,.15-.3.18-.71-.56-2.28-1.13-2.4-2-4.35-4-4.94A2.37,2.37,0,0,0,81.9,112.48Z" transform="translate(-9.27 -9.21)"/><path class="cls-4" d="M89.18,119.31a2.37,2.37,0,0,0,.82-1.23c.53-2-1.54-5.18-3.86-5a3.6,3.6,0,0,0-2.76,2.12c.08.1.74-.56,1.21-.34.79.38-.36,2.68.72,4A3.08,3.08,0,0,0,89.18,119.31Z" transform="translate(-9.27 -9.21)"/><path class="cls-4" d="M77.19,119.29a2.54,2.54,0,0,1-.73-1.2c-.51-2,1.08-5.24,3-5.14a3.16,3.16,0,0,1,2.37,2c-.06.1-.64-.53-1-.3-.64.41.4,2.67-.44,4A2.25,2.25,0,0,1,77.19,119.29Z" transform="translate(-9.27 -9.21)"/><path class="cls-4" d="M88.61,117.58c.34-.21,1-.61,1-1.18,0-.8-1.23-1.49-2.25-1.6a2.31,2.31,0,0,0-2.21.79,1.86,1.86,0,0,0,.15,2.11C86.09,118.64,87.78,118.11,88.61,117.58Z" transform="translate(-9.27 -9.21)"/><path class="cls-4" d="M77.12,116.87a1.67,1.67,0,0,0,.71.88,2.13,2.13,0,0,0,2.59,0,1.9,1.9,0,0,0,.43-2.12,2,2,0,0,0-3.73,1.24Z" transform="translate(-9.27 -9.21)"/><path class="cls-1" d="M81.43,110.17a6.17,6.17,0,0,0-2.31.84,4.2,4.2,0,0,0-1.71,1.73,2.9,2.9,0,0,0-.27,2.38,3.15,3.15,0,0,0,2.14,1.44c.92.29,1.47.28,5.29,0,1.8-.11,2.72-.18,3.42-.81a2.88,2.88,0,0,0,.87-1.4,2.76,2.76,0,0,0-.08-1.63c-.68-2-3.45-2.56-4-2.67A7.73,7.73,0,0,0,81.43,110.17Z" transform="translate(-9.27 -9.21)"/><path class="cls-1" d="M60.37,104.94c-1.92.36-3.07,2.12-3.57,2.9-3.64,5.59.13,13.79,1.24,16.22a29.1,29.1,0,0,0,4.69,7.07c2.36,2.63,3.54,3.94,5.14,4.54A4.89,4.89,0,0,1,70,137c.49.56.43.81,1,2,.78,1.51,1.39,2.68,2.38,2.88a2.19,2.19,0,0,0,1.61-.44c1.42-1.09.85-4-.3-9.48-2-9.46-2.37-10.91-2.78-12.36-1.2-4.22-1.82-6.36-2.89-8.11C68.62,110.75,64.56,104.15,60.37,104.94Z" transform="translate(-9.27 -9.21)"/><path class="cls-6" d="M119.59,118a22.22,22.22,0,0,0,5.28-1.49c1.62-.68,2.67-1.36,3.06-1s-.51,1.73-1,4.41a15.46,15.46,0,0,0-.27,2.5" transform="translate(-9.27 -9.21)"/><path class="cls-6" d="M119.14,115.45a7.87,7.87,0,0,0,3.2-2.5,8.32,8.32,0,0,0,1.37-6.29" transform="translate(-9.27 -9.21)"/><path class="cls-6" d="M109,103.37a7.5,7.5,0,0,1,2.07,2.27,8.54,8.54,0,0,1,.7,1.53,10.32,10.32,0,0,1,.49,2" transform="translate(-9.27 -9.21)"/><path class="cls-6" d="M81.3,92.77a53.54,53.54,0,0,1,6.4.42,56.67,56.67,0,0,1,9.45,2" transform="translate(-9.27 -9.21)"/><path class="cls-6" d="M70,136.92a13.82,13.82,0,0,1,0-4.11c.22-1.59.54-1.89.69-2,.81-.61,2.43-.12,4.13,1.17" transform="translate(-9.27 -9.21)"/><path class="cls-7" d="M127.18,91.14c-2.14,1.19-1.73,4.12-1.71,4.26a3.58,3.58,0,0,0,1.6,2.66,3.64,3.64,0,0,0,3.32-.2,4.05,4.05,0,0,0,2-2.22,3.65,3.65,0,0,0-5.22-4.5Z" transform="translate(-9.27 -9.21)"/><path class="cls-7" d="M88.13,90.22c1.75,1.71,4.44.49,4.57.43a3.54,3.54,0,0,0,2.1-2.27,3.64,3.64,0,0,0-1.13-3.14A4,4,0,0,0,91,83.94a3.66,3.66,0,0,0-2.85,6.28Z" transform="translate(-9.27 -9.21)"/><path class="cls-7" d="M129.35,104.93a3.26,3.26,0,0,0-1.24-2.55,4,4,0,0,0-4.75-.34c-1,.7-1.74,2.09-1.33,3.15.23.6.88.93,2.19,1.57s2.18,1.08,2.92.91A3,3,0,0,0,129.35,104.93Z" transform="translate(-9.27 -9.21)"/><path class="cls-7" d="M118.92,89.56c-.51,0-.8.77-1.36,2.18s-.79,2-.49,2.38c.46.56,2,.39,2.79-.49a2.58,2.58,0,0,0,.5-2.06C120.21,90.63,119.55,89.51,118.92,89.56Z" transform="translate(-9.27 -9.21)"/><path class="cls-7" d="M95.31,78.14c1.16.47,3.61,1.45,3.92,2.87a1.35,1.35,0,0,1-.54,1.44,2.29,2.29,0,0,1-1.44.28c-1.18,0-3.57-.54-4.44-2.08-.68-1.18-.3-2.69.76-2.92A3.14,3.14,0,0,1,95.31,78.14Z" transform="translate(-9.27 -9.21)"/><path class="cls-7" d="M86,79c-.78,0-1.35.78-1.93,1.62-.39.55-1.11,1.59-.75,2.11s1.48.24,2.11.09c1-.22,1.92-.44,2.2-1.23A2.15,2.15,0,0,0,86,79Z" transform="translate(-9.27 -9.21)"/><path class="cls-1" d="M82.28,95.11a1,1,0,0,0-1,1,1,1,0,0,0,.89,1,1.1,1.1,0,0,0,.91-1.43A.93.93,0,0,0,82.28,95.11Z" transform="translate(-9.27 -9.21)"/><path class="cls-1" d="M86.37,95.2a1,1,0,0,0-.1,2,1.1,1.1,0,0,0,.91-1.43A.9.9,0,0,0,86.37,95.2Z" transform="translate(-9.27 -9.21)"/><path class="cls-1" d="M90.65,95.92a1,1,0,0,0-.1,1.94,1.09,1.09,0,0,0,.91-1.42A.9.9,0,0,0,90.65,95.92Z" transform="translate(-9.27 -9.21)"/><path class="cls-1" d="M84.37,98.38a1,1,0,0,0-.93,1.72,1.11,1.11,0,0,0,1.44-.9A.92.92,0,0,0,84.37,98.38Z" transform="translate(-9.27 -9.21)"/><path class="cls-1" d="M88.45,98.55a1,1,0,0,0-.93,1.72,1.11,1.11,0,0,0,1.44-.9A.92.92,0,0,0,88.45,98.55Z" transform="translate(-9.27 -9.21)"/><path class="cls-8" d="M101.9,155.08c-.35.36-.19.49-.52.93a2.9,2.9,0,0,1-1.6,1c-.65.14-.74-.08-1.18.11a1.91,1.91,0,0,0-1.06,1.37c-.12.63.22.83,0,1.24s-.6.29-1.26.85-.54.82-.93.89-.42-.21-1-.27-.65.18-1.44.25c-.62,0-.57-.11-.9,0-.81.21-.81,1.06-1.64,1.31-.26.07-.21,0-.92.06s-.85.21-1.18.19-.54-.27-1.63-1c-.86-.58-1-.53-1.3-.89-.49-.54-.33-.73-.78-1.17A4.54,4.54,0,0,0,83,159c-.89-.35-1.14-.34-1.33-.65s0-.58-.25-1.09-.46-.51-.85-.94c-.17-.19-1.07-1.17-.86-2s1.24-.81,1.26-1.48c0-.42-.41-.62-.3-1s.45-.52.39-.66-.43,0-.72-.19-.12-.44-.37-.75-.65-.21-.92-.56,0-.6-.26-.84c-.41-.47-1.91-.22-2.43.6-.22.35-.07.51-.36,1s-.79.69-.79,1c0,.5.84.61.89,1.16a1.17,1.17,0,0,1-.86,1c-.72.2-1.06-.59-2-.51-.71.07-.84.56-1.38.44-.28-.06-.55-.34-1.1-.9s-.57-.68-.79-.76a1.41,1.41,0,0,0-1.55.56c-.33.58.24,1-.1,1.86,0,.08-.32.74-.8.79s-.62-.35-.85-.24,0,.67-.32.95-1.08-.23-1.75.15c-.17.1-.13.15-.57.68a4.81,4.81,0,0,1-1.15,1.17c-.66.37-.89,0-1.66.27s-.7.79-1.57,1.16a1.7,1.7,0,0,1-1.33.16c-.44-.2-.42-.61-1-1.1a5.27,5.27,0,0,0-.8-.44c-.64-.39-1.53-.91-1.64-1.67,0-.26.06-.24.11-1s0-.77,0-1c.13-.77,1.12-1.1,3.19-2.56a1.48,1.48,0,0,0,.65-.77c.13-.49-.22-.7-.11-1.21s.72-.64.73-1.15-.34-.47-.38-1,.2-.79.13-.83-.39.65-1,.83a1.22,1.22,0,0,1-1.23-.32c-.31-.37-.1-.83-.41-1s-.33,0-.7,0-.38-.31-.92-.64-.57-.19-.83-.45a1.37,1.37,0,0,1-.41-.71c-.09-.44.14-.53.15-1s-.39-.72-.47-1.46a1.78,1.78,0,0,1,.12-1c.37-.8,1.41-.89,1.37-1.22s-.45-.16-.68-.54a1.33,1.33,0,0,1,0-1,1.93,1.93,0,0,1,.7-1.26c.55-.36,1.08-.08,1.29-.42s-.13-.45,0-.92a1.43,1.43,0,0,1,.93-1c.41-.13.53.11,1,0a2,2,0,0,0,.91-.81c.44-.59.33-.73.64-1a1.45,1.45,0,0,1,1.44-.25c.42.2.37.59.79.72s.54-.17.93-.07c.59.15.64,1,1,1s.38-.52.93-.78a1.67,1.67,0,0,1,1.64.19c.46.38.31.87.93,1.41.07.06.43.37.57.28s-.23-.62-.2-1.33c0-.26.07-.35.77-1.78a3.79,3.79,0,0,0,.49-1.21c.08-.67-.23-.78-.11-1.25.18-.69.89-.65,1.16-1.45a2.26,2.26,0,0,0,0-1c-.1-.61-.37-.72-.3-1.06s.81-.77,1.12-.89c.56-.22.83-.14,1-.41s0-.47.16-.79c.25-.57,1-.32,1.69-.9s.32-.84,1-1.54c.28-.28.82-.81,1.31-.66s.62.79.64,1.17c0,.72-.78.92-.7,1.5,0,.23.21.41.58.77a2.4,2.4,0,0,0,1.35.86c.43.05.45-.16,1-.13s.63.22,1,.15.43-.31.82-.4a1.51,1.51,0,0,1,1.45.59c.36.54.07,1.11.35,1.24s.52-.44,1.34-.62a10.31,10.31,0,0,0,1-.13c.38-.1.42-.17.77-.26a2.86,2.86,0,0,1,1.07-.09,1.88,1.88,0,0,1,1.31.61c.37.48.21,1.06.4,1.1s.3-.43.74-.94a2.25,2.25,0,0,1,1.23-.88c1-.12,1.43,1.39,2.39,1.26.49-.07.47-.46,1.2-.6a3,3,0,0,1,1.3,0c.42.12.61.3.79.2s.09-.37.22-.72a1.42,1.42,0,0,1,1.12-.89c.47,0,.46.41,1.48.94a1.84,1.84,0,0,1,.69.47,2.24,2.24,0,0,1,.3.77c.18.72.09.69.2,1s.15.24.86,1.15a6.53,6.53,0,0,0,.43.55c.42.39.67.34,1,.71s.12.37.35.64.74.28,1,.6a1.16,1.16,0,0,1-.15,1.25,2.62,2.62,0,0,1-1.41.65c-.39.1-.55.1-.59.21s.38.41,1.07,1.15c.42.45.41.55.66.67.43.22.71.05,1,.3a1.14,1.14,0,0,1,.38.74c.14.84-.51,1.24-.3,1.66s1,.44,1.47.38.62-.32,1.14-.36,1.22.08,1.42.51-.15.63-.07,1.51a.69.69,0,0,0,.19.48c.17.13.36.05.56.06.46,0,.77.53,1,.93.34.55.86,1.38.51,2.07a1.7,1.7,0,0,1-1.29.77c-.76.07-1.16-.41-1.5-.17a.9.9,0,0,0-.15,1c.22.49.73.38.93.82s0,.76-.4,1.61-.52.88-.53,1.27c0,.55.3.72.25,1.2a1.66,1.66,0,0,1-.64,1c-.48.39-.72.22-1.21.63a8.19,8.19,0,0,0-.66.84c-.6.82-.63.89-.77.94-.57.18-1.12-.62-1.43-.41s0,.54-.22,1S102.34,154.61,101.9,155.08Z" transform="translate(-9.27 -9.21)"/><path class="cls-9" d="M79.5,147a1.33,1.33,0,0,0,.2,0c-.07,0-.2,0,0,0l.37.11a2,2,0,0,0,1.13,0,2,2,0,0,0,.85-.6,1.86,1.86,0,0,0,.21-.28c-.11.2,0,.06,0,0s.17-.12,0-.05,0,0,.06,0-.21.06,0,0l.17,0s-.25,0-.07,0h.15c.23,0,.45,0,.67,0a2.16,2.16,0,0,0,1.66-.64,1,1,0,0,0-1.41-1.41s-.15.12,0,0,0,0,0,0,.15,0,.07,0l-.13,0c-.19,0,.24,0,0,0H83a3.4,3.4,0,0,0-1.58.26,1.76,1.76,0,0,0-.63.49l-.22.28c.07-.08.11-.13,0,0a.63.63,0,0,1-.11.12c-.12.13.13-.08,0,0s.21-.12.23-.06h-.07c-.09,0-.08,0,0,0s.09,0,0,0l-.06,0-.17,0a2.37,2.37,0,0,0-.91-.14,1,1,0,0,0-1,1,1,1,0,0,0,1,1Z" transform="translate(-9.27 -9.21)"/><path class="cls-9" d="M67.68,137.18l-.22-.06-.12-.05.1,0-.23-.11-.09-.05c-.13-.09.14.13.07.05a.34.34,0,0,0-.09-.08c-.11-.1.08.09.07.09s0-.08-.06-.1.1.21,0,.11,0,.1,0,.09,0-.1,0-.11a1.51,1.51,0,0,0-.18-.65,1.35,1.35,0,1,0-2.33,1.35l1.57-1.21-.39-.32a1,1,0,0,0-1.67.44,2.44,2.44,0,0,0,1,2.69l.13.09c.15.11-.16-.16,0,0l.08.07-.1-.12a.72.72,0,0,1-.07-.56.59.59,0,0,1,.35-.43c.19-.09.23-.12.13-.08h0c.2,0,0,0-.07,0a2.78,2.78,0,0,0-.49.08,1.78,1.78,0,0,0-.88.62,1.82,1.82,0,0,0-.17,2,1,1,0,0,0,1.37.36,1,1,0,0,0,.36-1.37c-.09-.16.07.23,0,.07s0,.25,0,.09V140c0-.08,0,0,0,.16a.65.65,0,0,0,0-.13c0,.18-.08.19,0,.07s0-.05,0,0l0,0,.05,0c.06,0,0,0-.11.08l0,0-.12.05,0,0-.13,0h.15a2.65,2.65,0,0,0,.48-.07,1.26,1.26,0,0,0,.93-1.06,1.36,1.36,0,0,0-.45-1.16,4.63,4.63,0,0,0-.42-.32c-.15-.11.18.17,0,0l-.11-.11c-.12-.13.12.2,0,0l-.07-.13c-.09-.15.06.22,0,0s0-.1,0-.15,0,.25,0,.06a.56.56,0,0,1,0-.13s0-.24,0-.05,0,0,0-.07l-1.67.44.39.32a1,1,0,0,0,1.31.07,1,1,0,0,0,.26-1.29.69.69,0,0,1,.09.34c0,.19,0,.23,0,.13a.65.65,0,0,1-.49.48.69.69,0,0,1-.35,0c.09,0,.06,0-.12,0a.66.66,0,0,1-.3-.38c0-.17,0-.2,0-.1s0,.22,0,.33l0,.14a1.77,1.77,0,0,0,.23.48,3,3,0,0,0,1.68,1.05,1,1,0,0,0,1.23-.7,1,1,0,0,0-.7-1.23Z" transform="translate(-9.27 -9.21)"/><path class="cls-9" d="M73.79,146.91l-.41-.14.24.1a2.18,2.18,0,0,1-.42-.24l.2.16a1,1,0,0,1-.2-.21l.15.21a.7.7,0,0,1-.09-.17l.1.24a.76.76,0,0,1-.06-.2l0,.26a.74.74,0,0,1,0-.21l0,.27a1.05,1.05,0,0,1,0-.19l-.1.23a.41.41,0,0,1,.07-.11l-.15.2a.28.28,0,0,1,.09-.1l-.2.16.1-.06-.24.1h0l-1.13-.46a2.86,2.86,0,0,1,.3.54L72,147a2.09,2.09,0,0,1,.08.23L73.34,146a.83.83,0,0,1-.21-.06l.24.1a1,1,0,0,1-.23-.13l.2.15a1.37,1.37,0,0,1-.17-.17l.16.2a1.09,1.09,0,0,1-.14-.23l.1.24a1.55,1.55,0,0,1-.07-.23l0,.26a.11.11,0,0,0,0,0l-1.5.87.62.37.77-1.83h0l.23.1-.08,0,.2.15,0,0,.15.2a.56.56,0,0,1,0-.08l.1.24a.3.3,0,0,1,0-.1l0,.27v0a1.05,1.05,0,0,0-.29-.7,1,1,0,0,0-.71-.3,1,1,0,0,0-.71.3,1,1,0,0,0-.29.7,1.29,1.29,0,0,0,.22.71,1,1,0,0,0,.18.23,1.3,1.3,0,0,0,.23.18,1.11,1.11,0,0,0,.35.16.77.77,0,0,0,.4,0,.85.85,0,0,0,.37-.12,1.07,1.07,0,0,0,.41-.48,1,1,0,0,0,0-.65,1.06,1.06,0,0,0-.46-.6l-.62-.37a1,1,0,0,0-1,0,1,1,0,0,0-.36.36,1,1,0,0,0-.14.5,2.43,2.43,0,0,0,.22.81,2.21,2.21,0,0,0,.33.47,1.84,1.84,0,0,0,1,.57,1,1,0,0,0,.53,0,.94.94,0,0,0,.44-.26,1,1,0,0,0,.26-1,4.25,4.25,0,0,0-.48-1l-.16-.2a.75.75,0,0,0-.32-.21,1,1,0,0,0-.65,0,1.42,1.42,0,0,0-.65.4,1.58,1.58,0,0,0-.37.64,1.66,1.66,0,0,0,0,1.08,2,2,0,0,0,.4.67,2.34,2.34,0,0,0,.49.39,4.55,4.55,0,0,0,.94.39,1,1,0,0,0,.77-.1,1.07,1.07,0,0,0,.46-.6,1.09,1.09,0,0,0-.1-.77,1.19,1.19,0,0,0-.6-.46Z" transform="translate(-9.27 -9.21)"/><path class="cls-9" d="M99.06,133.65l-.92-.54L98,133c-.08-.05,0,0,.09.07a995164323835,995164323835,0,0,1-.14-.14c.1.14.13.17.07.09s0-.05,0,.12c0,0,0,0,0-.08l0,.26v-.07l0,.27c0-.17,0-.07-.19.3a.88.88,0,0,1-.29.18l-.27,0h.09l-.27,0c.15,0-.18-.11-.09-.05s-.19-.18-.07,0l-.1-.13-.06-.14s0,.16,0,.19l0-.27a3.42,3.42,0,0,0,.19,1.06,1.41,1.41,0,0,0,1,.87,1,1,0,0,0,1-.36,1,1,0,0,0,.08-1.11,1.45,1.45,0,0,0-1.86-.57,1.29,1.29,0,0,0-.33.17l-.12.08-.22.18.09-.07a.5.5,0,0,0-.12.08c-.14.08,0,0,.05,0-.11,0-.23.06-.35.08l.27,0a10.92,10.92,0,0,0-1.15.12,1.83,1.83,0,0,0-1.19.81,1.58,1.58,0,0,0-.14,1.29,1.43,1.43,0,0,0,1.29,1,1,1,0,0,0,.87-.5c.1-.16-.16.15,0,0s.21-.18.06-.06,0,0,.06,0c.21-.12-.19.06,0,0l-1.13-1.47c.18-.24-.06.06-.11.12s-.15.17-.23.26-.32.32-.5.48a1,1,0,0,0,0,1.41,1,1,0,0,0,1.42,0,8.54,8.54,0,0,0,1.14-1.26.88.88,0,0,0,.14-.5,1,1,0,0,0-1.27-1,2.48,2.48,0,0,0-1.27,1l.86-.49h0l.27,0c-.14,0,.22.13.1,0l.15.11c.11.15.14.2.1.13s0-.05,0,.12c0,0,0-.08,0-.12l0,.27v-.16l0,.27s0-.17,0,0,.06,0-.07.11,0,0,0,0-.22.15-.06.06.15-.07,0,0,0,0,0,0a1.19,1.19,0,0,1,.26,0l-.27,0a5.81,5.81,0,0,0,1.32-.16,2.63,2.63,0,0,0,.79-.47c.16-.12-.14.1,0,0l.12-.08.1-.06c-.17.12-.19.07-.07.05l-.26,0h.18l-.27,0c.13,0,.11.07-.07-.05l-.14-.11c-.11-.15-.13-.19-.09-.1l1.13-1.47c-.07,0-.06,0,0,0a.46.46,0,0,1,.21.13c-.12-.1.11.17.06.07s.07.26,0,.09l0-.14,0,.27a6.27,6.27,0,0,0-.11-.87,1.54,1.54,0,0,0-.68-.9,1.31,1.31,0,0,0-1.94.74c-.32,1.27,1.11,1.9,2,2.41a1,1,0,0,0,1-1.73Z" transform="translate(-9.27 -9.21)"/><path class="cls-9" d="M99.8,151.87a2.67,2.67,0,0,0-1.39-1.63l.07,0-.09-.07a1.29,1.29,0,0,0-.16-.17s.12.18.07.09l-.06-.09s-.07-.15,0,0,0,.1,0,0,0,0,0,.14a.21.21,0,0,0,0-.08c0-.12-.06.22,0,.1a1.46,1.46,0,0,0,.07-.19,1.29,1.29,0,0,0-.11-1,1.78,1.78,0,0,0-1.4-.71,1.6,1.6,0,0,0-1.32.44,1.87,1.87,0,0,0,.12,2.49,7.16,7.16,0,0,0,.84.9l.22.19.23.17c.18.14-.17-.15,0,0s0,0,.06.06,0,0-.06-.09l-.06-.15c-.07-.26,0-.22,0-.14a.78.78,0,0,1,.36-.62l.77-.1c-.23-.05.18.1.06,0q.22.2.12.09l.1.13-.07-.13c.16.28.06.15,0,0s-.11-.4-.18-.6a2.29,2.29,0,0,0-.56-.85,5.86,5.86,0,0,0-.69-.51l-.28-.18c-.13-.09.2.16.07.05l-.13-.11c-.07-.08-.08-.15,0,.07l-.09-.14q.11.27.06.12l0-.05c0-.1,0-.06,0,.12v-.1c0,.18,0,.22,0,.11s0-.06,0,0,0,0,0-.06q-.17.19-.06.09t-.09.06l.07,0c.07,0,0,0-.12,0l.09,0c-.18,0-.22,0-.11,0s-.23-.07-.07,0-.15-.09,0,0,.06,0-.08-.07l.07.07.71-1.71h-.19c-.19,0,.24.06,0,0l-.18-.05c-.07,0,0,0,.1.05l-.11-.06a1,1,0,1,0-1,1.73,2.6,2.6,0,0,0,1.39.33,1,1,0,0,0,.91-.61,1,1,0,0,0-.21-1.1,1.81,1.81,0,0,0-2.93,2.08,2.92,2.92,0,0,0,1.19,1.12l.24.16c-.26-.16-.12-.09,0,0l.12.12c.09.08-.13-.2-.07-.1l0,0s.1.21,0,0,0,0,0,0,0,.12,0,.18a1.85,1.85,0,0,0,1.2,1.49,1.19,1.19,0,0,0,1.43-1.18,1.45,1.45,0,0,0-.6-1.19l-.23-.18c-.08-.06.08.07.08.06l-.17-.14c-.13-.11-.24-.22-.36-.34s-.2-.22-.3-.33l-.06-.08c-.09-.1.1.15,0,.06l-.12-.18s-.1-.21,0,0,0,0,0-.08.06,0,0,.12c0,0,0-.05,0-.07s0,.17,0,.15,0-.06,0,0a.31.31,0,0,1-.09.14c-.1.12,0,0,0,0s-.25.19-.27.15l.08,0c.11,0-.24,0-.11,0h.08c.09,0,.1.06-.11,0l.22.05.07,0,0,0a.72.72,0,0,1-.45-.7s.06-.22,0-.13,0,.1,0,.14a1.58,1.58,0,0,0-.08.61,2.06,2.06,0,0,0,.63,1.31,7.76,7.76,0,0,0,.86.65l-.1-.07s.09.07.1.08.19.21.08.07.09.21,0,0,0,.06,0,.12a1,1,0,0,0,.46.6,1,1,0,0,0,.77.1,1.06,1.06,0,0,0,.6-.46,1.2,1.2,0,0,0,.1-.77Z" transform="translate(-9.27 -9.21)"/><path class="cls-9" d="M83.78,145.4c.86-.08,2.12,0,2.78-.62a1.59,1.59,0,0,0-.26-2.35,3.18,3.18,0,0,0-2.6-.19,3.12,3.12,0,0,0-.61.11c-.16.06-.13,0-.09.08,0,0,.16.15.14.15s-.31-1-.35-1.12a3.23,3.23,0,0,0-1.69-1.79s-.34-.2-.37-.18h0s0,0,0,.12l0,.13c-.06.14,0,.17,0,.08s.28-.34.34-.45a1.31,1.31,0,0,0,.13-.89c-.41-1.8-4.19-2.18-4,0a3.91,3.91,0,0,0,1.2,2.12c.2.23.43.45.61.69a1.37,1.37,0,0,1,.35.73l1-1c-.86,0-2.06-.13-2.72.56a1.39,1.39,0,0,0,.57,2.31V142c-1,.14-1.94.91-1.63,2a1.79,1.79,0,0,0,1,1.11c.26.11.54.14.79.25a1.23,1.23,0,0,1,.39.33c.84.79,2.37.83,2.71-.49.29-1.13-.6-2.16-1.42-2.79l-.77,1.83,1,.4.52.19.18.07c.1.05.09,0,0,0l-.13-.51,0,.12,1-1c-.38,0-.79-.41-1.13-.57a2.48,2.48,0,0,0-1.65-.22,1.91,1.91,0,0,0-.7.38,2.09,2.09,0,0,1-.22.2c-.05,0,.2,0,0,0a1.58,1.58,0,0,1-1.09-.4,1,1,0,0,0-1.57.21l.85-.14v1.41c-.12.09,0,0,.06,0a2.42,2.42,0,0,0,.47-.21,5.11,5.11,0,0,0,.62-.41c.3-.22.67-.59,1.06-.47.68.21,1.51-.52,1.23-1.23a1.23,1.23,0,0,1-.11-.73A1,1,0,0,0,79,140a1,1,0,0,0-1.23.7,3.12,3.12,0,0,0,.11,1.79l1.23-1.23a2.69,2.69,0,0,0-2.33.47c-.27.19-.53.41-.82.58a6.55,6.55,0,0,0-1,.56,1,1,0,0,0,0,1.41,1.43,1.43,0,0,0,2.29-.26l-1.57.2c.9.76,2.38,1.38,3.51.73a2,2,0,0,0,.37-.29l.15-.15-.06,0a1,1,0,0,1,.37.15,4.6,4.6,0,0,0,1.87.71c.59,0,.94-.5,1-1,.1-.77-.58-1.22-1.2-1.46l-1.84-.7a1,1,0,0,0-1.18.58,1,1,0,0,0,.41,1.25,1.53,1.53,0,0,1,.37.43c.25.4-.06.15.19-.05l.44-.26c.13-.05.28.16,0-.1l-.23-.22a2.49,2.49,0,0,0-.93-.51,2.34,2.34,0,0,0-.4-.1c-.18,0-.07-.28-.11.3s-.08.35.33.29a1,1,0,0,0,.73-1,1,1,0,0,0-.73-1l-.09,0,.44.26c.2.28.2.51,0,.71s-.2.17-.12.17a2,2,0,0,0,.41,0l1,0a1,1,0,0,0,1-1,3.78,3.78,0,0,0-1.06-2.29,4,4,0,0,1-1.16-1.65v.54h0l-.36.36a.9.9,0,0,1,.32,0c.17,0,.22.16.19,0v-.53c0-.09.14-.18,0,0a3.31,3.31,0,0,0-.25.3,1.53,1.53,0,0,0-.27.8,1.81,1.81,0,0,0,.57,1.36,6.72,6.72,0,0,0,1.18.71,1.42,1.42,0,0,1,.53.82,4.8,4.8,0,0,0,.39,1.16,1.69,1.69,0,0,0,1.43.78,8.17,8.17,0,0,0,1.55-.23c.21,0,.45,0,.65-.09s.07.09,0-.07-.24-.23-.1-.41l.36-.36a1.46,1.46,0,0,1-.64.11l-.93.08a1,1,0,0,0,0,2Z" transform="translate(-9.27 -9.21)"/><path class="cls-9" d="M60.09,155.6a1.7,1.7,0,0,0,.87.24,1.83,1.83,0,0,0,.89-.22,1.87,1.87,0,0,0,.65-.6,1.92,1.92,0,0,0,.19-.41,2.86,2.86,0,0,1,.07-.28l-.11.24,0-.06-.16.2,0,0-.21.15.06,0-.24.1.08,0-.26,0a2.8,2.8,0,0,1,.4,0,2,2,0,0,0,.43-.05,1.46,1.46,0,0,0,.57-.32,1,1,0,0,0,.3-.71,1,1,0,0,0-.3-.71,1,1,0,0,0-.7-.29l-.27,0a.92.92,0,0,0-.44.25l0,0,.2-.16-.06,0,.24-.1-.08,0,.26,0a1.63,1.63,0,0,1-.31,0,1.36,1.36,0,0,0-.53,0,1.3,1.3,0,0,0-.76.58,1.49,1.49,0,0,0-.15.4.59.59,0,0,1,0,.19l.1-.24a.38.38,0,0,1-.09.15l.16-.2-.12.12.2-.15-.2.11.24-.1a.79.79,0,0,1-.22.06l.27,0h-.2l.26,0-.17,0,.24.1-.11-.06a1,1,0,0,0-.77-.1,1,1,0,0,0-.24,1.83Z" transform="translate(-9.27 -9.21)"/><path class="cls-9" d="M78,131.28a1.5,1.5,0,0,0-1.09.56,1.84,1.84,0,0,0-.38,1,2.1,2.1,0,0,0,.12.82c0,.13.09.24.13.37a1.72,1.72,0,0,1,.07.21c.06.18,0-.11,0,0v.08c0,.08,0,.06,0-.05,0,.05,0,.15,0,.2a3.86,3.86,0,0,0-.09.49,3.31,3.31,0,0,0,0,1,3.25,3.25,0,0,0,.83,1.65,1,1,0,0,0,1.42,0,1,1,0,0,0,0-1.41,1.09,1.09,0,0,0-.1-.11s.11.17,0,0a2,2,0,0,1-.14-.25c-.08-.14,0,0,0,0s0-.12,0-.13,0-.26-.07-.28,0,.21,0,0a.71.71,0,0,1,0-.14c0-.08,0-.22,0-.29s0,.19,0,.05a.94.94,0,0,0,0-.16c0-.16.07-.31.1-.47a2.28,2.28,0,0,0-.06-.9c0-.2-.14-.39-.21-.59a.74.74,0,0,0,0-.14c0-.12,0,.18,0,.09a.49.49,0,0,0,0-.12c0-.11,0,.21,0,.1s.06-.16,0,0,0,0,0,0l0,0a.2.2,0,0,1-.11.11.59.59,0,0,1-.37.12,1,1,0,0,0,1-1c0-.48-.44-1.06-1-1Z" transform="translate(-9.27 -9.21)"/><path class="cls-9" d="M85,144.21c.16-.22-.07.06-.12.12l-.25.26a6.25,6.25,0,0,0-.56.69,2,2,0,0,0-.11,2,2.56,2.56,0,0,0,.68.75l.38.28.16.1.08.06.08.07s.14.18.06.06,0,.07,0,.09l-.05-.11c0-.16,0-.2,0-.12s0,0,0-.05c0,.17.07-.14,0-.05s0,0,.07-.08l.12-.09s.4-.06.23-.07a1,1,0,0,0-1,1,2.09,2.09,0,0,0,.6,1.44,1,1,0,0,0,1.21.16,1.06,1.06,0,0,0,.46-1.13,4,4,0,0,0-1.59-2.29,9,9,0,0,1-.89-.86c-.11-.12.11.16,0,.06a.76.76,0,0,1-.08-.11s0-.09-.08-.14,0-.09,0,.06a.72.72,0,0,0-.07-.25c-.06-.17,0,.24,0,.06s0-.11,0-.16a1,1,0,0,0-1-1,1,1,0,0,0-1,1,3.44,3.44,0,0,0,1.43,2.56,11,11,0,0,1,.94.87l.09.11c.08.09.07.15,0,0a1.32,1.32,0,0,0,.16.25l.06.12c.09.17-.07-.22,0,0s.06.21.08.32l1.67-1c-.08-.08-.08-.07,0,0,0-.09,0-.09,0,0v0c0,.13,0,.14,0,0l-1,1a1.6,1.6,0,0,0,1.55-1.63,2.37,2.37,0,0,0-1.28-1.87l-.16-.1c-.05,0-.2-.19,0,0a.86.86,0,0,1-.14-.13.3.3,0,0,1-.08-.08c.07.1.08.11,0,.05s-.06-.1,0,0c0-.09,0-.1,0,0s0,.09,0,0c0,.13,0,.18,0,0s-.09.11,0,0a.48.48,0,0,0,.09-.14c.11-.19-.15.16,0,0s.17-.2.26-.29a7.69,7.69,0,0,0,.65-.76,1,1,0,0,0-.35-1.37,1,1,0,0,0-1.37.36Z" transform="translate(-9.27 -9.21)"/><path class="cls-9" d="M59.82,144.39a1.27,1.27,0,0,0,.34,0,1.05,1.05,0,0,0,.31-.12,1.3,1.3,0,0,0,.47-.46,1.22,1.22,0,0,0,.17-.39,1.51,1.51,0,0,0,0-.47,1.83,1.83,0,0,0-.07-.46,2.06,2.06,0,0,0-.35-.61c-.13-.15-.27-.28-.4-.44l.16.2a1.22,1.22,0,0,1-.12-.19l.1.24a1.24,1.24,0,0,1,0-.16l0,.26a1.62,1.62,0,0,1,0-.22,1.38,1.38,0,0,0-.17-.63,1.14,1.14,0,0,0-.76-.59,1.16,1.16,0,0,0-1.11.31,1.1,1.1,0,0,0-.31.75,1,1,0,0,0,.14.53.88.88,0,0,0,.2.25l-.16-.21a.33.33,0,0,1,.06.1l-.1-.24a.36.36,0,0,1,0,.11l0-.27v.11l0-.27a.28.28,0,0,1,0,.13l.1-.23-.06.09.16-.2-.06.06.2-.16-.08.05.24-.1h0a1.15,1.15,0,0,0-.6.46,1,1,0,0,0-.1.77,1,1,0,0,0,.46.6,1,1,0,0,0,.77.1,1.3,1.3,0,0,0,.34-.15,1.48,1.48,0,0,0,.34-.32,1.25,1.25,0,0,0,.27-.54,1.43,1.43,0,0,0-.38-1.36l.29.71v0l0,.26h0l-.1.23h0l-.16.2,0,0-.2.16,0,0-.24.1h0l-.27,0h.06l-.27,0h.06l-.24-.1,0,0-.2-.15h0l-.15-.2a.43.43,0,0,1,0,.07l-.1-.24s0,.06,0,.09l0-.27a3.68,3.68,0,0,0,.07.58,1.51,1.51,0,0,0,.15.37,1,1,0,0,0,.08.14c.17.24.39.44.57.68l-.15-.2a.64.64,0,0,1,.08.14l-.1-.24a.75.75,0,0,1,0,.16l0-.27a.74.74,0,0,1,0,.21l0-.27a.57.57,0,0,1,0,.14l.1-.24a.26.26,0,0,1,0,.09l.16-.2,0,0,.2-.16-.06,0,.24-.1h-.06l.27,0h-.08a1,1,0,0,0-.71.29,1,1,0,0,0-.29.71,1,1,0,0,0,.29.7l.2.16a1.15,1.15,0,0,0,.51.14Z" transform="translate(-9.27 -9.21)"/><path class="cls-1" d="M113.45,109.09a9.52,9.52,0,0,0-5.41,2c-5.5,3.57-8.24,5.36-8.57,5.63a40.06,40.06,0,0,0-9.07,10,41.19,41.19,0,0,0-3.87,8.36,21.82,21.82,0,0,0-1.22,9.11c0,.36.15,1.06.63,1.3.78.39,2-.74,3.49-1.79s1.56-.79,4.8-2.42c5.66-2.85,7-4.27,13.76-7.86a47.58,47.58,0,0,0,7.38-4.49c2.33-1.75,3.22-2.8,3.75-4.11.36-.89.47-1.69.08-5.86-.67-7.25-1.31-8.22-2.1-8.84A5.79,5.79,0,0,0,113.45,109.09Z" transform="translate(-9.27 -9.21)"/><path class="cls-6" d="M86.53,135.08A4.88,4.88,0,0,1,90.18,134a3.41,3.41,0,0,1,2.15,1.06,4,4,0,0,1,.65,3.13,8.37,8.37,0,0,1-2,4.61" transform="translate(-9.27 -9.21)"/><ellipse class="cls-10" cx="61.42" cy="94.38" rx="5.1" ry="4.57"/><ellipse class="cls-10" cx="89.81" cy="96.63" rx="5.1" ry="4.57"/><ellipse class="cls-11" cx="72.59" cy="100.73" rx="1.91" ry="1.71" transform="translate(-60.08 77.76) rotate(-47.86)"/><ellipse class="cls-11" cx="100.88" cy="102.56" rx="1.91" ry="1.71" transform="translate(-52.12 99.34) rotate(-47.86)"/><ellipse class="cls-4" cx="61.41" cy="74.59" rx="3.39" ry="2.35"/><ellipse class="cls-4" cx="52.82" cy="65.75" rx="5.21" ry="3.61"/><path class="cls-12" d="M14.89,46.43a12.28,12.28,0,0,0-1.11,9.34,7.24,7.24,0,0,0,4.68,4.67c3.44,1.43,8,.34,9.36-3.11.43-1.07.64-2.55,1-2.51s.44,1.37.87,2.81a11.22,11.22,0,0,0,2.49,4.22c3.7,4.45,10.33,3.32,11.18,3.16,2.27-.42,5.69-1.06,6.71-4.22.59-1.82.28-4.16.62-4.21s.42,1.37,1.12,2.81a7.24,7.24,0,0,0,2.73,3c3.67,2.55,9.33,1.88,11.56,1.59a13.7,13.7,0,0,0,7.29-2.91,5.31,5.31,0,0,0,2.27-3.54c.16-1.51-.55-2.67-.25-3s1.32,1,3,1.93a6.72,6.72,0,0,0,4.22.7c1-.19,2.25-.75,4.35-3,2.31-2.46,6.85-7.29,6.09-10.9-.67-3.17-5.13-3.84-5-4.74.09-.53,1.55.07,3.35-.88a7.2,7.2,0,0,0,3.6-5.09c.22-1.95-.59-3.48-2.11-6.33-1.27-2.39-2.39-4.48-4.47-6.15a9.35,9.35,0,0,0-7.33-2.11c-4.08.78-6.93,4.76-7.46,3.87-.25-.43.44-1.36.5-3.52a10.73,10.73,0,0,0-.37-3.16c-1.12-3.71-7.33-3.34-13.17-3-2.06.13-3.25.34-4.47,1.41-2.3,2-3.37,5.89-3.48,5.8a12.76,12.76,0,0,0,.62-2.64A8.14,8.14,0,0,0,52.69,13c-1.14-2.62-3.82-2.92-6-3.16s-3.76.25-6.95,1.23c-3.57,1.09-4.3,1.95-4.72,2.81-.95,1.92-.57,4.25-1.12,4.39s-.8-2.39-2.49-4A5.55,5.55,0,0,0,28,12.83a5.86,5.86,0,0,0-4,.35,7,7,0,0,0-3.6,4.39,14.14,14.14,0,0,0,.12,6.5c.46,2.48,1.2,4,.87,4.39s-.8-.48-1.86-1.05a5.5,5.5,0,0,0-3.85-.35c-1.69.28-3.13.53-4.23,2.11a10.3,10.3,0,0,0-1.37,4.74,15.66,15.66,0,0,0,.5,7.56A8.36,8.36,0,0,0,14.89,46.43Z" transform="translate(-9.27 -9.21)"/><path class="cls-13" d="M64.05,50.93a1.46,1.46,0,0,1-.61-1.22c0-.72.42-1.11,1.29-2.27a14.41,14.41,0,0,0,2-3.58,5,5,0,0,0,.39-1.74,4.47,4.47,0,0,0-1-2.8,1.53,1.53,0,0,0-.54-.5c-.69-.32-1.29.28-2.43.71a3.88,3.88,0,0,1-2.87.27c-1-.42-.83-1.33-1.82-1.68a2.68,2.68,0,0,0-1.91.15c-3.4,1.27-4.85,5-7.81,5.44-1.65.24-1.49-.88-6-1.84-2.55-.55-3.13-.3-3.81-1-1.74-1.71,1-5-.7-7.07-.5-.63-1.95-1.06-4.86-1.94-2-.61-3.23-.81-3.54-1.72a1.44,1.44,0,0,1,.42-1.56c.37-.23.84-.08,1.82.36a46.75,46.75,0,0,1,4.17,2.12c1,.58,1.51.92,2.23.81a2.33,2.33,0,0,0,1.25-.68c2.15-2,2.62-5.34,4.58-6.47,2.91-1.68,8.46,1.85,10.74.73a.86.86,0,0,1,.7-.1c.56.23.57,1.33.73,3.58,0,0,.12,1.72.66,4.84a3,3,0,0,0,.84,2c.52.39.89.13,1.57.56s.72,1.14,1.27,1.46c.78.45,1.89-.27,2.94-1a17.41,17.41,0,0,0,4.08-3.83c.69-1,1-1.7,1.82-1.82s1.49.26,1.6.8c.22,1.1-2.18,3-2.44,3.25-.57.45-1.26.9-1.34,1.65a1.62,1.62,0,0,0,.14.81A14.33,14.33,0,0,1,69,41.85a1.65,1.65,0,0,0,.33.9,1.78,1.78,0,0,0,1.32.48c1.21.09,1,.62,3.91,1.84,1.22.52,1.59.56,1.84,1a2,2,0,0,1-.29,2.27c-.88.59-3-1-4.9-2.46-.88-.67-1.69-1.37-2.36-1-.26.12-.31.3-.74,1-1.08,1.8-1.33,1.63-1.75,2.64s-.23,1.43-.72,1.93A1.49,1.49,0,0,1,64.05,50.93ZM55.11,36.07c.3-1-.21-1.27-.63-3.61-.47-2.61,0-3-.59-3.9s-1.76-1.15-4.06-1.73c-2.14-.54-3.21-.81-4.09-.43-1,.45-.82,1.06-2.81,3.43-1.37,1.64-1.81,1.75-2.14,2.73a7,7,0,0,0,0,3.21c.24,1.84.36,2.77.91,3.38.9,1,1.67.32,4.33,1.38,1.75.69,2.5,1.41,3.36,1,.47-.21.43-.51,1.17-1.28a14,14,0,0,1,2.19-1.57A5.71,5.71,0,0,0,55.11,36.07Z" transform="translate(-9.27 -9.21)"/><circle class="cls-14" cx="20.64" cy="20.95" r="2.08"/><circle class="cls-15" cx="62.06" cy="22.82" r="2.08"/><circle class="cls-14" cx="54.78" cy="41.71" r="2.08"/><circle class="cls-14" cx="66.88" cy="39.18" r="2.08"/></svg>